  0
SECTION
  2
BLOCKS
  0
ENDSEC
  0
SECTION
  2
ENTITIES
  0
LINE
  8
0
 10
-1.2
 20
-1.2
 11
83.2
 21
-1.2
  0
LINE
  8
0
 10
83.2
 20
-1.2
 11
83.2
 21
71.2
  0
LINE
  8
0
 10
83.2
 20
71.2
 11
-1.2
 21
71.2
  0
LINE
  8
0
 10
-1.2
 20
71.2
 11
-1.2
 21
-1.2
  0
LINE
  8
0
 10
22.5
 20
7
 11
22.503
 21
7.09418
  0
LINE
  8
0
 10
22.503
 20
7.09418
 11
22.5118
 21
7.188
  0
LINE
  8
0
 10
22.5118
 20
7.188
 11
22.5266
 21
7.28107
  0
LINE
  8
0
 10
22.5266
 20
7.28107
 11
22.5471
 21
7.37303
  0
LINE
  8
0
 10
22.5471
 20
7.37303
 11
22.5734
 21
7.46352
  0
LINE
  8
0
 10
22.5734
 20
7.46352
 11
22.6053
 21
7.55219
  0
LINE
  8
0
 10
22.6053
 20
7.55219
 11
22.6428
 21
7.63867
  0
LINE
  8
0
 10
22.6428
 20
7.63867
 11
22.6855
 21
7.72263
  0
LINE
  8
0
 10
22.6855
 20
7.72263
 11
22.7335
 21
7.80374
  0
LINE
  8
0
 10
22.7335
 20
7.80374
 11
22.7865
 21
7.88168
  0
LINE
  8
0
 10
22.7865
 20
7.88168
 11
22.8442
 21
7.95614
  0
LINE
  8
0
 10
22.8442
 20
7.95614
 11
22.9065
 21
8.02682
  0
LINE
  8
0
 10
22.9065
 20
8.02682
 11
22.9732
 21
8.09345
  0
LINE
  8
0
 10
22.9732
 20
8.09345
 11
23.0439
 21
8.15577
  0
LINE
  8
0
 10
23.0439
 20
8.15577
 11
23.1183
 21
8.21352
  0
LINE
  8
0
 10
23.1183
 20
8.21352
 11
23.1963
 21
8.26649
  0
LINE
  8
0
 10
23.1963
 20
8.26649
 11
23.2774
 21
8.31446
  0
LINE
  8
0
 10
23.2774
 20
8.31446
 11
23.3613
 21
8.35724
  0
LINE
  8
0
 10
23.3613
 20
8.35724
 11
23.4478
 21
8.39466
  0
LINE
  8
0
 10
23.4478
 20
8.39466
 11
23.5365
 21
8.42658
  0
LINE
  8
0
 10
23.5365
 20
8.42658
 11
23.627
 21
8.45287
  0
LINE
  8
0
 10
23.627
 20
8.45287
 11
23.7189
 21
8.47343
  0
LINE
  8
0
 10
23.7189
 20
8.47343
 11
23.812
 21
8.48817
  0
LINE
  8
0
 10
23.812
 20
8.48817
 11
23.9058
 21
8.49704
  0
LINE
  8
0
 10
23.9058
 20
8.49704
 11
24
 21
8.5
  0
LINE
  8
0
 10
24
 20
8.5
 11
24.0942
 21
8.49704
  0
LINE
  8
0
 10
24.0942
 20
8.49704
 11
24.188
 21
8.48817
  0
LINE
  8
0
 10
24.188
 20
8.48817
 11
24.2811
 21
8.47343
  0
LINE
  8
0
 10
24.2811
 20
8.47343
 11
24.373
 21
8.45287
  0
LINE
  8
0
 10
24.373
 20
8.45287
 11
24.4635
 21
8.42658
  0
LINE
  8
0
 10
24.4635
 20
8.42658
 11
24.5522
 21
8.39466
  0
LINE
  8
0
 10
24.5522
 20
8.39466
 11
24.6387
 21
8.35724
  0
LINE
  8
0
 10
24.6387
 20
8.35724
 11
24.7226
 21
8.31446
  0
LINE
  8
0
 10
24.7226
 20
8.31446
 11
24.8037
 21
8.26649
  0
LINE
  8
0
 10
24.8037
 20
8.26649
 11
24.8817
 21
8.21352
  0
LINE
  8
0
 10
24.8817
 20
8.21352
 11
24.9561
 21
8.15577
  0
LINE
  8
0
 10
24.9561
 20
8.15577
 11
25.0268
 21
8.09345
  0
LINE
  8
0
 10
25.0268
 20
8.09345
 11
25.0935
 21
8.02682
  0
LINE
  8
0
 10
25.0935
 20
8.02682
 11
25.1558
 21
7.95614
  0
LINE
  8
0
 10
25.1558
 20
7.95614
 11
25.2135
 21
7.88168
  0
LINE
  8
0
 10
25.2135
 20
7.88168
 11
25.2665
 21
7.80374
  0
LINE
  8
0
 10
25.2665
 20
7.80374
 11
25.3145
 21
7.72263
  0
LINE
  8
0
 10
25.3145
 20
7.72263
 11
25.3572
 21
7.63867
  0
LINE
  8
0
 10
25.3572
 20
7.63867
 11
25.3947
 21
7.55219
  0
LINE
  8
0
 10
25.3947
 20
7.55219
 11
25.4266
 21
7.46352
  0
LINE
  8
0
 10
25.4266
 20
7.46352
 11
25.4529
 21
7.37303
  0
LINE
  8
0
 10
25.4529
 20
7.37303
 11
25.4734
 21
7.28107
  0
LINE
  8
0
 10
25.4734
 20
7.28107
 11
25.4882
 21
7.188
  0
LINE
  8
0
 10
25.4882
 20
7.188
 11
25.497
 21
7.09418
  0
LINE
  8
0
 10
25.497
 20
7.09418
 11
25.5
 21
7
  0
LINE
  8
0
 10
25.5
 20
7
 11
25.497
 21
6.90581
  0
LINE
  8
0
 10
25.497
 20
6.90581
 11
25.4882
 21
6.812
  0
LINE
  8
0
 10
25.4882
 20
6.812
 11
25.4734
 21
6.71893
  0
LINE
  8
0
 10
25.4734
 20
6.71893
 11
25.4529
 21
6.62696
  0
LINE
  8
0
 10
25.4529
 20
6.62696
 11
25.4266
 21
6.53647
  0
LINE
  8
0
 10
25.4266
 20
6.53647
 11
25.3947
 21
6.44781
  0
LINE
  8
0
 10
25.3947
 20
6.44781
 11
25.3572
 21
6.36133
  0
LINE
  8
0
 10
25.3572
 20
6.36133
 11
25.3145
 21
6.27737
  0
LINE
  8
0
 10
25.3145
 20
6.27737
 11
25.2665
 21
6.19626
  0
LINE
  8
0
 10
25.2665
 20
6.19626
 11
25.2135
 21
6.11832
  0
LINE
  8
0
 10
25.2135
 20
6.11832
 11
25.1558
 21
6.04386
  0
LINE
  8
0
 10
25.1558
 20
6.04386
 11
25.0935
 21
5.97318
  0
LINE
  8
0
 10
25.0935
 20
5.97318
 11
25.0268
 21
5.90655
  0
LINE
  8
0
 10
25.0268
 20
5.90655
 11
24.9561
 21
5.84423
  0
LINE
  8
0
 10
24.9561
 20
5.84423
 11
24.8817
 21
5.78647
  0
LINE
  8
0
 10
24.8817
 20
5.78647
 11
24.8037
 21
5.73351
  0
LINE
  8
0
 10
24.8037
 20
5.73351
 11
24.7226
 21
5.68554
  0
LINE
  8
0
 10
24.7226
 20
5.68554
 11
24.6387
 21
5.64276
  0
LINE
  8
0
 10
24.6387
 20
5.64276
 11
24.5522
 21
5.60534
  0
LINE
  8
0
 10
24.5522
 20
5.60534
 11
24.4635
 21
5.57341
  0
LINE
  8
0
 10
24.4635
 20
5.57341
 11
24.373
 21
5.54712
  0
LINE
  8
0
 10
24.373
 20
5.54712
 11
24.2811
 21
5.52657
  0
LINE
  8
0
 10
24.2811
 20
5.52657
 11
24.188
 21
5.51183
  0
LINE
  8
0
 10
24.188
 20
5.51183
 11
24.0942
 21
5.50296
  0
LINE
  8
0
 10
24.0942
 20
5.50296
 11
24
 21
5.5
  0
LINE
  8
0
 10
24
 20
5.5
 11
23.9058
 21
5.50296
  0
LINE
  8
0
 10
23.9058
 20
5.50296
 11
23.812
 21
5.51183
  0
LINE
  8
0
 10
23.812
 20
5.51183
 11
23.7189
 21
5.52657
  0
LINE
  8
0
 10
23.7189
 20
5.52657
 11
23.627
 21
5.54712
  0
LINE
  8
0
 10
23.627
 20
5.54712
 11
23.5365
 21
5.57341
  0
LINE
  8
0
 10
23.5365
 20
5.57341
 11
23.4478
 21
5.60534
  0
LINE
  8
0
 10
23.4478
 20
5.60534
 11
23.3613
 21
5.64276
  0
LINE
  8
0
 10
23.3613
 20
5.64276
 11
23.2774
 21
5.68554
  0
LINE
  8
0
 10
23.2774
 20
5.68554
 11
23.1963
 21
5.73351
  0
LINE
  8
0
 10
23.1963
 20
5.73351
 11
23.1183
 21
5.78647
  0
LINE
  8
0
 10
23.1183
 20
5.78647
 11
23.0439
 21
5.84423
  0
LINE
  8
0
 10
23.0439
 20
5.84423
 11
22.9732
 21
5.90655
  0
LINE
  8
0
 10
22.9732
 20
5.90655
 11
22.9065
 21
5.97318
  0
LINE
  8
0
 10
22.9065
 20
5.97318
 11
22.8442
 21
6.04386
  0
LINE
  8
0
 10
22.8442
 20
6.04386
 11
22.7865
 21
6.11832
  0
LINE
  8
0
 10
22.7865
 20
6.11832
 11
22.7335
 21
6.19626
  0
LINE
  8
0
 10
22.7335
 20
6.19626
 11
22.6855
 21
6.27737
  0
LINE
  8
0
 10
22.6855
 20
6.27737
 11
22.6428
 21
6.36133
  0
LINE
  8
0
 10
22.6428
 20
6.36133
 11
22.6053
 21
6.44781
  0
LINE
  8
0
 10
22.6053
 20
6.44781
 11
22.5734
 21
6.53647
  0
LINE
  8
0
 10
22.5734
 20
6.53647
 11
22.5471
 21
6.62696
  0
LINE
  8
0
 10
22.5471
 20
6.62696
 11
22.5266
 21
6.71893
  0
LINE
  8
0
 10
22.5266
 20
6.71893
 11
22.5118
 21
6.812
  0
LINE
  8
0
 10
22.5118
 20
6.812
 11
22.503
 21
6.90581
  0
LINE
  8
0
 10
22.503
 20
6.90581
 11
22.5
 21
7
  0
LINE
  8
0
 10
23.5
 20
55
 11
23.503
 21
55.0942
  0
LINE
  8
0
 10
23.503
 20
55.0942
 11
23.5118
 21
55.188
  0
LINE
  8
0
 10
23.5118
 20
55.188
 11
23.5266
 21
55.2811
  0
LINE
  8
0
 10
23.5266
 20
55.2811
 11
23.5471
 21
55.373
  0
LINE
  8
0
 10
23.5471
 20
55.373
 11
23.5734
 21
55.4635
  0
LINE
  8
0
 10
23.5734
 20
55.4635
 11
23.6053
 21
55.5522
  0
LINE
  8
0
 10
23.6053
 20
55.5522
 11
23.6428
 21
55.6387
  0
LINE
  8
0
 10
23.6428
 20
55.6387
 11
23.6855
 21
55.7226
  0
LINE
  8
0
 10
23.6855
 20
55.7226
 11
23.7335
 21
55.8037
  0
LINE
  8
0
 10
23.7335
 20
55.8037
 11
23.7865
 21
55.8817
  0
LINE
  8
0
 10
23.7865
 20
55.8817
 11
23.8442
 21
55.9561
  0
LINE
  8
0
 10
23.8442
 20
55.9561
 11
23.9065
 21
56.0268
  0
LINE
  8
0
 10
23.9065
 20
56.0268
 11
23.9732
 21
56.0935
  0
LINE
  8
0
 10
23.9732
 20
56.0935
 11
24.0439
 21
56.1558
  0
LINE
  8
0
 10
24.0439
 20
56.1558
 11
24.1183
 21
56.2135
  0
LINE
  8
0
 10
24.1183
 20
56.2135
 11
24.1963
 21
56.2665
  0
LINE
  8
0
 10
24.1963
 20
56.2665
 11
24.2774
 21
56.3145
  0
LINE
  8
0
 10
24.2774
 20
56.3145
 11
24.3613
 21
56.3572
  0
LINE
  8
0
 10
24.3613
 20
56.3572
 11
24.4478
 21
56.3947
  0
LINE
  8
0
 10
24.4478
 20
56.3947
 11
24.5365
 21
56.4266
  0
LINE
  8
0
 10
24.5365
 20
56.4266
 11
24.627
 21
56.4529
  0
LINE
  8
0
 10
24.627
 20
56.4529
 11
24.7189
 21
56.4734
  0
LINE
  8
0
 10
24.7189
 20
56.4734
 11
24.812
 21
56.4882
  0
LINE
  8
0
 10
24.812
 20
56.4882
 11
24.9058
 21
56.497
  0
LINE
  8
0
 10
24.9058
 20
56.497
 11
25
 21
56.5
  0
LINE
  8
0
 10
25
 20
56.5
 11
25.0942
 21
56.497
  0
LINE
  8
0
 10
25.0942
 20
56.497
 11
25.188
 21
56.4882
  0
LINE
  8
0
 10
25.188
 20
56.4882
 11
25.2811
 21
56.4734
  0
LINE
  8
0
 10
25.2811
 20
56.4734
 11
25.373
 21
56.4529
  0
LINE
  8
0
 10
25.373
 20
56.4529
 11
25.4635
 21
56.4266
  0
LINE
  8
0
 10
25.4635
 20
56.4266
 11
25.5522
 21
56.3947
  0
LINE
  8
0
 10
25.5522
 20
56.3947
 11
25.6387
 21
56.3572
  0
LINE
  8
0
 10
25.6387
 20
56.3572
 11
25.7226
 21
56.3145
  0
LINE
  8
0
 10
25.7226
 20
56.3145
 11
25.8037
 21
56.2665
  0
LINE
  8
0
 10
25.8037
 20
56.2665
 11
25.8817
 21
56.2135
  0
LINE
  8
0
 10
25.8817
 20
56.2135
 11
25.9561
 21
56.1558
  0
LINE
  8
0
 10
25.9561
 20
56.1558
 11
26.0268
 21
56.0935
  0
LINE
  8
0
 10
26.0268
 20
56.0935
 11
26.0935
 21
56.0268
  0
LINE
  8
0
 10
26.0935
 20
56.0268
 11
26.1558
 21
55.9561
  0
LINE
  8
0
 10
26.1558
 20
55.9561
 11
26.2135
 21
55.8817
  0
LINE
  8
0
 10
26.2135
 20
55.8817
 11
26.2665
 21
55.8037
  0
LINE
  8
0
 10
26.2665
 20
55.8037
 11
26.3145
 21
55.7226
  0
LINE
  8
0
 10
26.3145
 20
55.7226
 11
26.3572
 21
55.6387
  0
LINE
  8
0
 10
26.3572
 20
55.6387
 11
26.3947
 21
55.5522
  0
LINE
  8
0
 10
26.3947
 20
55.5522
 11
26.4266
 21
55.4635
  0
LINE
  8
0
 10
26.4266
 20
55.4635
 11
26.4529
 21
55.373
  0
LINE
  8
0
 10
26.4529
 20
55.373
 11
26.4734
 21
55.2811
  0
LINE
  8
0
 10
26.4734
 20
55.2811
 11
26.4882
 21
55.188
  0
LINE
  8
0
 10
26.4882
 20
55.188
 11
26.497
 21
55.0942
  0
LINE
  8
0
 10
26.497
 20
55.0942
 11
26.5
 21
55
  0
LINE
  8
0
 10
26.5
 20
55
 11
26.497
 21
54.9058
  0
LINE
  8
0
 10
26.497
 20
54.9058
 11
26.4882
 21
54.812
  0
LINE
  8
0
 10
26.4882
 20
54.812
 11
26.4734
 21
54.7189
  0
LINE
  8
0
 10
26.4734
 20
54.7189
 11
26.4529
 21
54.627
  0
LINE
  8
0
 10
26.4529
 20
54.627
 11
26.4266
 21
54.5365
  0
LINE
  8
0
 10
26.4266
 20
54.5365
 11
26.3947
 21
54.4478
  0
LINE
  8
0
 10
26.3947
 20
54.4478
 11
26.3572
 21
54.3613
  0
LINE
  8
0
 10
26.3572
 20
54.3613
 11
26.3145
 21
54.2774
  0
LINE
  8
0
 10
26.3145
 20
54.2774
 11
26.2665
 21
54.1963
  0
LINE
  8
0
 10
26.2665
 20
54.1963
 11
26.2135
 21
54.1183
  0
LINE
  8
0
 10
26.2135
 20
54.1183
 11
26.1558
 21
54.0439
  0
LINE
  8
0
 10
26.1558
 20
54.0439
 11
26.0935
 21
53.9732
  0
LINE
  8
0
 10
26.0935
 20
53.9732
 11
26.0268
 21
53.9065
  0
LINE
  8
0
 10
26.0268
 20
53.9065
 11
25.9561
 21
53.8442
  0
LINE
  8
0
 10
25.9561
 20
53.8442
 11
25.8817
 21
53.7865
  0
LINE
  8
0
 10
25.8817
 20
53.7865
 11
25.8037
 21
53.7335
  0
LINE
  8
0
 10
25.8037
 20
53.7335
 11
25.7226
 21
53.6855
  0
LINE
  8
0
 10
25.7226
 20
53.6855
 11
25.6387
 21
53.6428
  0
LINE
  8
0
 10
25.6387
 20
53.6428
 11
25.5522
 21
53.6053
  0
LINE
  8
0
 10
25.5522
 20
53.6053
 11
25.4635
 21
53.5734
  0
LINE
  8
0
 10
25.4635
 20
53.5734
 11
25.373
 21
53.5471
  0
LINE
  8
0
 10
25.373
 20
53.5471
 11
25.2811
 21
53.5266
  0
LINE
  8
0
 10
25.2811
 20
53.5266
 11
25.188
 21
53.5118
  0
LINE
  8
0
 10
25.188
 20
53.5118
 11
25.0942
 21
53.503
  0
LINE
  8
0
 10
25.0942
 20
53.503
 11
25
 21
53.5
  0
LINE
  8
0
 10
25
 20
53.5
 11
24.9058
 21
53.503
  0
LINE
  8
0
 10
24.9058
 20
53.503
 11
24.812
 21
53.5118
  0
LINE
  8
0
 10
24.812
 20
53.5118
 11
24.7189
 21
53.5266
  0
LINE
  8
0
 10
24.7189
 20
53.5266
 11
24.627
 21
53.5471
  0
LINE
  8
0
 10
24.627
 20
53.5471
 11
24.5365
 21
53.5734
  0
LINE
  8
0
 10
24.5365
 20
53.5734
 11
24.4478
 21
53.6053
  0
LINE
  8
0
 10
24.4478
 20
53.6053
 11
24.3613
 21
53.6428
  0
LINE
  8
0
 10
24.3613
 20
53.6428
 11
24.2774
 21
53.6855
  0
LINE
  8
0
 10
24.2774
 20
53.6855
 11
24.1963
 21
53.7335
  0
LINE
  8
0
 10
24.1963
 20
53.7335
 11
24.1183
 21
53.7865
  0
LINE
  8
0
 10
24.1183
 20
53.7865
 11
24.0439
 21
53.8442
  0
LINE
  8
0
 10
24.0439
 20
53.8442
 11
23.9732
 21
53.9065
  0
LINE
  8
0
 10
23.9732
 20
53.9065
 11
23.9065
 21
53.9732
  0
LINE
  8
0
 10
23.9065
 20
53.9732
 11
23.8442
 21
54.0439
  0
LINE
  8
0
 10
23.8442
 20
54.0439
 11
23.7865
 21
54.1183
  0
LINE
  8
0
 10
23.7865
 20
54.1183
 11
23.7335
 21
54.1963
  0
LINE
  8
0
 10
23.7335
 20
54.1963
 11
23.6855
 21
54.2774
  0
LINE
  8
0
 10
23.6855
 20
54.2774
 11
23.6428
 21
54.3613
  0
LINE
  8
0
 10
23.6428
 20
54.3613
 11
23.6053
 21
54.4478
  0
LINE
  8
0
 10
23.6053
 20
54.4478
 11
23.5734
 21
54.5365
  0
LINE
  8
0
 10
23.5734
 20
54.5365
 11
23.5471
 21
54.627
  0
LINE
  8
0
 10
23.5471
 20
54.627
 11
23.5266
 21
54.7189
  0
LINE
  8
0
 10
23.5266
 20
54.7189
 11
23.5118
 21
54.812
  0
LINE
  8
0
 10
23.5118
 20
54.812
 11
23.503
 21
54.9058
  0
LINE
  8
0
 10
23.503
 20
54.9058
 11
23.5
 21
55
  0
LINE
  8
0
 10
74.5
 20
10
 11
74.503
 21
10.0942
  0
LINE
  8
0
 10
74.503
 20
10.0942
 11
74.5118
 21
10.188
  0
LINE
  8
0
 10
74.5118
 20
10.188
 11
74.5266
 21
10.2811
  0
LINE
  8
0
 10
74.5266
 20
10.2811
 11
74.5471
 21
10.373
  0
LINE
  8
0
 10
74.5471
 20
10.373
 11
74.5734
 21
10.4635
  0
LINE
  8
0
 10
74.5734
 20
10.4635
 11
74.6053
 21
10.5522
  0
LINE
  8
0
 10
74.6053
 20
10.5522
 11
74.6428
 21
10.6387
  0
LINE
  8
0
 10
74.6428
 20
10.6387
 11
74.6855
 21
10.7226
  0
LINE
  8
0
 10
74.6855
 20
10.7226
 11
74.7335
 21
10.8037
  0
LINE
  8
0
 10
74.7335
 20
10.8037
 11
74.7865
 21
10.8817
  0
LINE
  8
0
 10
74.7865
 20
10.8817
 11
74.8442
 21
10.9561
  0
LINE
  8
0
 10
74.8442
 20
10.9561
 11
74.9065
 21
11.0268
  0
LINE
  8
0
 10
74.9065
 20
11.0268
 11
74.9732
 21
11.0935
  0
LINE
  8
0
 10
74.9732
 20
11.0935
 11
75.0439
 21
11.1558
  0
LINE
  8
0
 10
75.0439
 20
11.1558
 11
75.1183
 21
11.2135
  0
LINE
  8
0
 10
75.1183
 20
11.2135
 11
75.1963
 21
11.2665
  0
LINE
  8
0
 10
75.1963
 20
11.2665
 11
75.2774
 21
11.3145
  0
LINE
  8
0
 10
75.2774
 20
11.3145
 11
75.3613
 21
11.3572
  0
LINE
  8
0
 10
75.3613
 20
11.3572
 11
75.4478
 21
11.3947
  0
LINE
  8
0
 10
75.4478
 20
11.3947
 11
75.5365
 21
11.4266
  0
LINE
  8
0
 10
75.5365
 20
11.4266
 11
75.627
 21
11.4529
  0
LINE
  8
0
 10
75.627
 20
11.4529
 11
75.7189
 21
11.4734
  0
LINE
  8
0
 10
75.7189
 20
11.4734
 11
75.812
 21
11.4882
  0
LINE
  8
0
 10
75.812
 20
11.4882
 11
75.9058
 21
11.497
  0
LINE
  8
0
 10
75.9058
 20
11.497
 11
76
 21
11.5
  0
LINE
  8
0
 10
76
 20
11.5
 11
76.0942
 21
11.497
  0
LINE
  8
0
 10
76.0942
 20
11.497
 11
76.188
 21
11.4882
  0
LINE
  8
0
 10
76.188
 20
11.4882
 11
76.2811
 21
11.4734
  0
LINE
  8
0
 10
76.2811
 20
11.4734
 11
76.373
 21
11.4529
  0
LINE
  8
0
 10
76.373
 20
11.4529
 11
76.4635
 21
11.4266
  0
LINE
  8
0
 10
76.4635
 20
11.4266
 11
76.5522
 21
11.3947
  0
LINE
  8
0
 10
76.5522
 20
11.3947
 11
76.6387
 21
11.3572
  0
LINE
  8
0
 10
76.6387
 20
11.3572
 11
76.7226
 21
11.3145
  0
LINE
  8
0
 10
76.7226
 20
11.3145
 11
76.8037
 21
11.2665
  0
LINE
  8
0
 10
76.8037
 20
11.2665
 11
76.8817
 21
11.2135
  0
LINE
  8
0
 10
76.8817
 20
11.2135
 11
76.9561
 21
11.1558
  0
LINE
  8
0
 10
76.9561
 20
11.1558
 11
77.0268
 21
11.0935
  0
LINE
  8
0
 10
77.0268
 20
11.0935
 11
77.0935
 21
11.0268
  0
LINE
  8
0
 10
77.0935
 20
11.0268
 11
77.1558
 21
10.9561
  0
LINE
  8
0
 10
77.1558
 20
10.9561
 11
77.2135
 21
10.8817
  0
LINE
  8
0
 10
77.2135
 20
10.8817
 11
77.2665
 21
10.8037
  0
LINE
  8
0
 10
77.2665
 20
10.8037
 11
77.3145
 21
10.7226
  0
LINE
  8
0
 10
77.3145
 20
10.7226
 11
77.3572
 21
10.6387
  0
LINE
  8
0
 10
77.3572
 20
10.6387
 11
77.3947
 21
10.5522
  0
LINE
  8
0
 10
77.3947
 20
10.5522
 11
77.4266
 21
10.4635
  0
LINE
  8
0
 10
77.4266
 20
10.4635
 11
77.4529
 21
10.373
  0
LINE
  8
0
 10
77.4529
 20
10.373
 11
77.4734
 21
10.2811
  0
LINE
  8
0
 10
77.4734
 20
10.2811
 11
77.4882
 21
10.188
  0
LINE
  8
0
 10
77.4882
 20
10.188
 11
77.497
 21
10.0942
  0
LINE
  8
0
 10
77.497
 20
10.0942
 11
77.5
 21
10
  0
LINE
  8
0
 10
77.5
 20
10
 11
77.497
 21
9.90581
  0
LINE
  8
0
 10
77.497
 20
9.90581
 11
77.4882
 21
9.812
  0
LINE
  8
0
 10
77.4882
 20
9.812
 11
77.4734
 21
9.71893
  0
LINE
  8
0
 10
77.4734
 20
9.71893
 11
77.4529
 21
9.62696
  0
LINE
  8
0
 10
77.4529
 20
9.62696
 11
77.4266
 21
9.53647
  0
LINE
  8
0
 10
77.4266
 20
9.53647
 11
77.3947
 21
9.44781
  0
LINE
  8
0
 10
77.3947
 20
9.44781
 11
77.3572
 21
9.36133
  0
LINE
  8
0
 10
77.3572
 20
9.36133
 11
77.3145
 21
9.27737
  0
LINE
  8
0
 10
77.3145
 20
9.27737
 11
77.2665
 21
9.19626
  0
LINE
  8
0
 10
77.2665
 20
9.19626
 11
77.2135
 21
9.11832
  0
LINE
  8
0
 10
77.2135
 20
9.11832
 11
77.1558
 21
9.04386
  0
LINE
  8
0
 10
77.1558
 20
9.04386
 11
77.0935
 21
8.97318
  0
LINE
  8
0
 10
77.0935
 20
8.97318
 11
77.0268
 21
8.90655
  0
LINE
  8
0
 10
77.0268
 20
8.90655
 11
76.9561
 21
8.84423
  0
LINE
  8
0
 10
76.9561
 20
8.84423
 11
76.8817
 21
8.78647
  0
LINE
  8
0
 10
76.8817
 20
8.78647
 11
76.8037
 21
8.73351
  0
LINE
  8
0
 10
76.8037
 20
8.73351
 11
76.7226
 21
8.68554
  0
LINE
  8
0
 10
76.7226
 20
8.68554
 11
76.6387
 21
8.64276
  0
LINE
  8
0
 10
76.6387
 20
8.64276
 11
76.5522
 21
8.60534
  0
LINE
  8
0
 10
76.5522
 20
8.60534
 11
76.4635
 21
8.57341
  0
LINE
  8
0
 10
76.4635
 20
8.57341
 11
76.373
 21
8.54712
  0
LINE
  8
0
 10
76.373
 20
8.54712
 11
76.2811
 21
8.52657
  0
LINE
  8
0
 10
76.2811
 20
8.52657
 11
76.188
 21
8.51183
  0
LINE
  8
0
 10
76.188
 20
8.51183
 11
76.0942
 21
8.50296
  0
LINE
  8
0
 10
76.0942
 20
8.50296
 11
76
 21
8.5
  0
LINE
  8
0
 10
76
 20
8.5
 11
75.9058
 21
8.50296
  0
LINE
  8
0
 10
75.9058
 20
8.50296
 11
75.812
 21
8.51183
  0
LINE
  8
0
 10
75.812
 20
8.51183
 11
75.7189
 21
8.52657
  0
LINE
  8
0
 10
75.7189
 20
8.52657
 11
75.627
 21
8.54712
  0
LINE
  8
0
 10
75.627
 20
8.54712
 11
75.5365
 21
8.57341
  0
LINE
  8
0
 10
75.5365
 20
8.57341
 11
75.4478
 21
8.60534
  0
LINE
  8
0
 10
75.4478
 20
8.60534
 11
75.3613
 21
8.64276
  0
LINE
  8
0
 10
75.3613
 20
8.64276
 11
75.2774
 21
8.68554
  0
LINE
  8
0
 10
75.2774
 20
8.68554
 11
75.1963
 21
8.73351
  0
LINE
  8
0
 10
75.1963
 20
8.73351
 11
75.1183
 21
8.78647
  0
LINE
  8
0
 10
75.1183
 20
8.78647
 11
75.0439
 21
8.84423
  0
LINE
  8
0
 10
75.0439
 20
8.84423
 11
74.9732
 21
8.90655
  0
LINE
  8
0
 10
74.9732
 20
8.90655
 11
74.9065
 21
8.97318
  0
LINE
  8
0
 10
74.9065
 20
8.97318
 11
74.8442
 21
9.04386
  0
LINE
  8
0
 10
74.8442
 20
9.04386
 11
74.7865
 21
9.11832
  0
LINE
  8
0
 10
74.7865
 20
9.11832
 11
74.7335
 21
9.19626
  0
LINE
  8
0
 10
74.7335
 20
9.19626
 11
74.6855
 21
9.27737
  0
LINE
  8
0
 10
74.6855
 20
9.27737
 11
74.6428
 21
9.36133
  0
LINE
  8
0
 10
74.6428
 20
9.36133
 11
74.6053
 21
9.44781
  0
LINE
  8
0
 10
74.6053
 20
9.44781
 11
74.5734
 21
9.53647
  0
LINE
  8
0
 10
74.5734
 20
9.53647
 11
74.5471
 21
9.62696
  0
LINE
  8
0
 10
74.5471
 20
9.62696
 11
74.5266
 21
9.71893
  0
LINE
  8
0
 10
74.5266
 20
9.71893
 11
74.5118
 21
9.812
  0
LINE
  8
0
 10
74.5118
 20
9.812
 11
74.503
 21
9.90581
  0
LINE
  8
0
 10
74.503
 20
9.90581
 11
74.5
 21
10
  0
LINE
  8
0
 10
74.5
 20
38
 11
74.503
 21
38.0942
  0
LINE
  8
0
 10
74.503
 20
38.0942
 11
74.5118
 21
38.188
  0
LINE
  8
0
 10
74.5118
 20
38.188
 11
74.5266
 21
38.2811
  0
LINE
  8
0
 10
74.5266
 20
38.2811
 11
74.5471
 21
38.373
  0
LINE
  8
0
 10
74.5471
 20
38.373
 11
74.5734
 21
38.4635
  0
LINE
  8
0
 10
74.5734
 20
38.4635
 11
74.6053
 21
38.5522
  0
LINE
  8
0
 10
74.6053
 20
38.5522
 11
74.6428
 21
38.6387
  0
LINE
  8
0
 10
74.6428
 20
38.6387
 11
74.6855
 21
38.7226
  0
LINE
  8
0
 10
74.6855
 20
38.7226
 11
74.7335
 21
38.8037
  0
LINE
  8
0
 10
74.7335
 20
38.8037
 11
74.7865
 21
38.8817
  0
LINE
  8
0
 10
74.7865
 20
38.8817
 11
74.8442
 21
38.9561
  0
LINE
  8
0
 10
74.8442
 20
38.9561
 11
74.9065
 21
39.0268
  0
LINE
  8
0
 10
74.9065
 20
39.0268
 11
74.9732
 21
39.0935
  0
LINE
  8
0
 10
74.9732
 20
39.0935
 11
75.0439
 21
39.1558
  0
LINE
  8
0
 10
75.0439
 20
39.1558
 11
75.1183
 21
39.2135
  0
LINE
  8
0
 10
75.1183
 20
39.2135
 11
75.1963
 21
39.2665
  0
LINE
  8
0
 10
75.1963
 20
39.2665
 11
75.2774
 21
39.3145
  0
LINE
  8
0
 10
75.2774
 20
39.3145
 11
75.3613
 21
39.3572
  0
LINE
  8
0
 10
75.3613
 20
39.3572
 11
75.4478
 21
39.3947
  0
LINE
  8
0
 10
75.4478
 20
39.3947
 11
75.5365
 21
39.4266
  0
LINE
  8
0
 10
75.5365
 20
39.4266
 11
75.627
 21
39.4529
  0
LINE
  8
0
 10
75.627
 20
39.4529
 11
75.7189
 21
39.4734
  0
LINE
  8
0
 10
75.7189
 20
39.4734
 11
75.812
 21
39.4882
  0
LINE
  8
0
 10
75.812
 20
39.4882
 11
75.9058
 21
39.497
  0
LINE
  8
0
 10
75.9058
 20
39.497
 11
76
 21
39.5
  0
LINE
  8
0
 10
76
 20
39.5
 11
76.0942
 21
39.497
  0
LINE
  8
0
 10
76.0942
 20
39.497
 11
76.188
 21
39.4882
  0
LINE
  8
0
 10
76.188
 20
39.4882
 11
76.2811
 21
39.4734
  0
LINE
  8
0
 10
76.2811
 20
39.4734
 11
76.373
 21
39.4529
  0
LINE
  8
0
 10
76.373
 20
39.4529
 11
76.4635
 21
39.4266
  0
LINE
  8
0
 10
76.4635
 20
39.4266
 11
76.5522
 21
39.3947
  0
LINE
  8
0
 10
76.5522
 20
39.3947
 11
76.6387
 21
39.3572
  0
LINE
  8
0
 10
76.6387
 20
39.3572
 11
76.7226
 21
39.3145
  0
LINE
  8
0
 10
76.7226
 20
39.3145
 11
76.8037
 21
39.2665
  0
LINE
  8
0
 10
76.8037
 20
39.2665
 11
76.8817
 21
39.2135
  0
LINE
  8
0
 10
76.8817
 20
39.2135
 11
76.9561
 21
39.1558
  0
LINE
  8
0
 10
76.9561
 20
39.1558
 11
77.0268
 21
39.0935
  0
LINE
  8
0
 10
77.0268
 20
39.0935
 11
77.0935
 21
39.0268
  0
LINE
  8
0
 10
77.0935
 20
39.0268
 11
77.1558
 21
38.9561
  0
LINE
  8
0
 10
77.1558
 20
38.9561
 11
77.2135
 21
38.8817
  0
LINE
  8
0
 10
77.2135
 20
38.8817
 11
77.2665
 21
38.8037
  0
LINE
  8
0
 10
77.2665
 20
38.8037
 11
77.3145
 21
38.7226
  0
LINE
  8
0
 10
77.3145
 20
38.7226
 11
77.3572
 21
38.6387
  0
LINE
  8
0
 10
77.3572
 20
38.6387
 11
77.3947
 21
38.5522
  0
LINE
  8
0
 10
77.3947
 20
38.5522
 11
77.4266
 21
38.4635
  0
LINE
  8
0
 10
77.4266
 20
38.4635
 11
77.4529
 21
38.373
  0
LINE
  8
0
 10
77.4529
 20
38.373
 11
77.4734
 21
38.2811
  0
LINE
  8
0
 10
77.4734
 20
38.2811
 11
77.4882
 21
38.188
  0
LINE
  8
0
 10
77.4882
 20
38.188
 11
77.497
 21
38.0942
  0
LINE
  8
0
 10
77.497
 20
38.0942
 11
77.5
 21
38
  0
LINE
  8
0
 10
77.5
 20
38
 11
77.497
 21
37.9058
  0
LINE
  8
0
 10
77.497
 20
37.9058
 11
77.4882
 21
37.812
  0
LINE
  8
0
 10
77.4882
 20
37.812
 11
77.4734
 21
37.7189
  0
LINE
  8
0
 10
77.4734
 20
37.7189
 11
77.4529
 21
37.627
  0
LINE
  8
0
 10
77.4529
 20
37.627
 11
77.4266
 21
37.5365
  0
LINE
  8
0
 10
77.4266
 20
37.5365
 11
77.3947
 21
37.4478
  0
LINE
  8
0
 10
77.3947
 20
37.4478
 11
77.3572
 21
37.3613
  0
LINE
  8
0
 10
77.3572
 20
37.3613
 11
77.3145
 21
37.2774
  0
LINE
  8
0
 10
77.3145
 20
37.2774
 11
77.2665
 21
37.1963
  0
LINE
  8
0
 10
77.2665
 20
37.1963
 11
77.2135
 21
37.1183
  0
LINE
  8
0
 10
77.2135
 20
37.1183
 11
77.1558
 21
37.0439
  0
LINE
  8
0
 10
77.1558
 20
37.0439
 11
77.0935
 21
36.9732
  0
LINE
  8
0
 10
77.0935
 20
36.9732
 11
77.0268
 21
36.9065
  0
LINE
  8
0
 10
77.0268
 20
36.9065
 11
76.9561
 21
36.8442
  0
LINE
  8
0
 10
76.9561
 20
36.8442
 11
76.8817
 21
36.7865
  0
LINE
  8
0
 10
76.8817
 20
36.7865
 11
76.8037
 21
36.7335
  0
LINE
  8
0
 10
76.8037
 20
36.7335
 11
76.7226
 21
36.6855
  0
LINE
  8
0
 10
76.7226
 20
36.6855
 11
76.6387
 21
36.6428
  0
LINE
  8
0
 10
76.6387
 20
36.6428
 11
76.5522
 21
36.6053
  0
LINE
  8
0
 10
76.5522
 20
36.6053
 11
76.4635
 21
36.5734
  0
LINE
  8
0
 10
76.4635
 20
36.5734
 11
76.373
 21
36.5471
  0
LINE
  8
0
 10
76.373
 20
36.5471
 11
76.2811
 21
36.5266
  0
LINE
  8
0
 10
76.2811
 20
36.5266
 11
76.188
 21
36.5118
  0
LINE
  8
0
 10
76.188
 20
36.5118
 11
76.0942
 21
36.503
  0
LINE
  8
0
 10
76.0942
 20
36.503
 11
76
 21
36.5
  0
LINE
  8
0
 10
76
 20
36.5
 11
75.9058
 21
36.503
  0
LINE
  8
0
 10
75.9058
 20
36.503
 11
75.812
 21
36.5118
  0
LINE
  8
0
 10
75.812
 20
36.5118
 11
75.7189
 21
36.5266
  0
LINE
  8
0
 10
75.7189
 20
36.5266
 11
75.627
 21
36.5471
  0
LINE
  8
0
 10
75.627
 20
36.5471
 11
75.5365
 21
36.5734
  0
LINE
  8
0
 10
75.5365
 20
36.5734
 11
75.4478
 21
36.6053
  0
LINE
  8
0
 10
75.4478
 20
36.6053
 11
75.3613
 21
36.6428
  0
LINE
  8
0
 10
75.3613
 20
36.6428
 11
75.2774
 21
36.6855
  0
LINE
  8
0
 10
75.2774
 20
36.6855
 11
75.1963
 21
36.7335
  0
LINE
  8
0
 10
75.1963
 20
36.7335
 11
75.1183
 21
36.7865
  0
LINE
  8
0
 10
75.1183
 20
36.7865
 11
75.0439
 21
36.8442
  0
LINE
  8
0
 10
75.0439
 20
36.8442
 11
74.9732
 21
36.9065
  0
LINE
  8
0
 10
74.9732
 20
36.9065
 11
74.9065
 21
36.9732
  0
LINE
  8
0
 10
74.9065
 20
36.9732
 11
74.8442
 21
37.0439
  0
LINE
  8
0
 10
74.8442
 20
37.0439
 11
74.7865
 21
37.1183
  0
LINE
  8
0
 10
74.7865
 20
37.1183
 11
74.7335
 21
37.1963
  0
LINE
  8
0
 10
74.7335
 20
37.1963
 11
74.6855
 21
37.2774
  0
LINE
  8
0
 10
74.6855
 20
37.2774
 11
74.6428
 21
37.3613
  0
LINE
  8
0
 10
74.6428
 20
37.3613
 11
74.6053
 21
37.4478
  0
LINE
  8
0
 10
74.6053
 20
37.4478
 11
74.5734
 21
37.5365
  0
LINE
  8
0
 10
74.5734
 20
37.5365
 11
74.5471
 21
37.627
  0
LINE
  8
0
 10
74.5471
 20
37.627
 11
74.5266
 21
37.7189
  0
LINE
  8
0
 10
74.5266
 20
37.7189
 11
74.5118
 21
37.812
  0
LINE
  8
0
 10
74.5118
 20
37.812
 11
74.503
 21
37.9058
  0
LINE
  8
0
 10
74.503
 20
37.9058
 11
74.5
 21
38
  0
ENDSEC
  0
SECTION
  2
OBJECTS
  0
DICTIONARY
  0
ENDSEC
  0
EOF
