solid OpenSCAD_Model
  facet normal -1 0 0
    outer loop
      vertex 77.2 71.8 -1.8
      vertex 77.2 27 34
      vertex 77.2 71.8 51
    endloop
  endfacet
  facet normal -1 0 0
    outer loop
      vertex 77.2 -1.8 -1.8
      vertex 77.2 27 34
      vertex 77.2 71.8 -1.8
    endloop
  endfacet
  facet normal -1 0 0
    outer loop
      vertex 77.2 -1.8 51
      vertex 77.2 17 34
      vertex 77.2 -1.8 -1.8
    endloop
  endfacet
  facet normal -1 -0 0
    outer loop
      vertex 77.2 27 34
      vertex 77.2 -1.8 -1.8
      vertex 77.2 17 34
    endloop
  endfacet
  facet normal -1 0 0
    outer loop
      vertex 77.2 27 46
      vertex 77.2 71.8 51
      vertex 77.2 27 34
    endloop
  endfacet
  facet normal -1 0 0
    outer loop
      vertex 77.2 -1.8 51
      vertex 77.2 27 46
      vertex 77.2 17 46
    endloop
  endfacet
  facet normal -1 0 0
    outer loop
      vertex 77.2 27 46
      vertex 77.2 -1.8 51
      vertex 77.2 71.8 51
    endloop
  endfacet
  facet normal -1 0 0
    outer loop
      vertex 77.2 17 34
      vertex 77.2 -1.8 51
      vertex 77.2 17 46
    endloop
  endfacet
  facet normal -0 0 1
    outer loop
      vertex 77.2 71.8 51
      vertex 79 -1.8 51
      vertex 79 71.8 51
    endloop
  endfacet
  facet normal 0 0 1
    outer loop
      vertex 79 -1.8 51
      vertex 77.2 71.8 51
      vertex 77.2 -1.8 51
    endloop
  endfacet
  facet normal 1 0 0
    outer loop
      vertex 79 27 34
      vertex 79 71.8 51
      vertex 79 27 46
    endloop
  endfacet
  facet normal 1 -0 0
    outer loop
      vertex 79 -1.8 51
      vertex 79 27 46
      vertex 79 71.8 51
    endloop
  endfacet
  facet normal 1 0 0
    outer loop
      vertex 79 17 46
      vertex 79 -1.8 51
      vertex 79 17 34
    endloop
  endfacet
  facet normal 1 0 0
    outer loop
      vertex 79 27 46
      vertex 79 -1.8 51
      vertex 79 17 46
    endloop
  endfacet
  facet normal 1 0 0
    outer loop
      vertex 79 71.8 51
      vertex 79 27 34
      vertex 79 71.8 -1.8
    endloop
  endfacet
  facet normal 1 0 0
    outer loop
      vertex 79 -1.8 -1.8
      vertex 79 27 34
      vertex 79 17 34
    endloop
  endfacet
  facet normal 1 0 0
    outer loop
      vertex 79 27 34
      vertex 79 -1.8 -1.8
      vertex 79 71.8 -1.8
    endloop
  endfacet
  facet normal 1 0 0
    outer loop
      vertex 79 -1.8 -1.8
      vertex 79 17 34
      vertex 79 -1.8 51
    endloop
  endfacet
  facet normal 0 1 -0
    outer loop
      vertex 79 71.8 -1.8
      vertex 77.2 71.8 51
      vertex 79 71.8 51
    endloop
  endfacet
  facet normal 0 1 0
    outer loop
      vertex 77.2 71.8 51
      vertex 79 71.8 -1.8
      vertex 77.2 71.8 -1.8
    endloop
  endfacet
  facet normal 0 0 -1
    outer loop
      vertex 77.2 -1.8 -1.8
      vertex 79 71.8 -1.8
      vertex 79 -1.8 -1.8
    endloop
  endfacet
  facet normal -0 0 -1
    outer loop
      vertex 79 71.8 -1.8
      vertex 77.2 -1.8 -1.8
      vertex 77.2 71.8 -1.8
    endloop
  endfacet
  facet normal 0 -1 0
    outer loop
      vertex 77.2 -1.8 -1.8
      vertex 79 -1.8 51
      vertex 77.2 -1.8 51
    endloop
  endfacet
  facet normal 0 -1 -0
    outer loop
      vertex 79 -1.8 51
      vertex 77.2 -1.8 -1.8
      vertex 79 -1.8 -1.8
    endloop
  endfacet
  facet normal 0 0 -1
    outer loop
      vertex 77.2 17 46
      vertex 79 27 46
      vertex 79 17 46
    endloop
  endfacet
  facet normal -0 0 -1
    outer loop
      vertex 79 27 46
      vertex 77.2 17 46
      vertex 77.2 27 46
    endloop
  endfacet
  facet normal -0 0 1
    outer loop
      vertex 77.2 27 34
      vertex 79 17 34
      vertex 79 27 34
    endloop
  endfacet
  facet normal 0 0 1
    outer loop
      vertex 79 17 34
      vertex 77.2 27 34
      vertex 77.2 17 34
    endloop
  endfacet
  facet normal 0 1 -0
    outer loop
      vertex 79 17 34
      vertex 77.2 17 46
      vertex 79 17 46
    endloop
  endfacet
  facet normal 0 1 0
    outer loop
      vertex 77.2 17 46
      vertex 79 17 34
      vertex 77.2 17 34
    endloop
  endfacet
  facet normal 0 -1 0
    outer loop
      vertex 77.2 27 34
      vertex 79 27 46
      vertex 77.2 27 46
    endloop
  endfacet
  facet normal 0 -1 -0
    outer loop
      vertex 79 27 46
      vertex 77.2 27 34
      vertex 79 27 34
    endloop
  endfacet
endsolid OpenSCAD_Model
