solid OpenSCAD_Model
  facet normal -1 0 0
    outer loop
      vertex 5 62 10
      vertex 5 60 10
      vertex 5 62 20
    endloop
  endfacet
  facet normal -1 0 0
    outer loop
      vertex 5 62 20
      vertex 5 70 25
      vertex 5 70 20
    endloop
  endfacet
  facet normal -1 0 0
    outer loop
      vertex 5 62 20
      vertex 5 60 25
      vertex 5 70 25
    endloop
  endfacet
  facet normal -1 0 0
    outer loop
      vertex 5 60 25
      vertex 5 62 20
      vertex 5 60 10
    endloop
  endfacet
  facet normal -0 0 1
    outer loop
      vertex 5 70 25
      vertex 195 60 25
      vertex 195 70 25
    endloop
  endfacet
  facet normal 0 0 1
    outer loop
      vertex 195 60 25
      vertex 5 70 25
      vertex 5 60 25
    endloop
  endfacet
  facet normal 1 0 0
    outer loop
      vertex 195 70 25
      vertex 195 62 20
      vertex 195 70 20
    endloop
  endfacet
  facet normal 1 -0 0
    outer loop
      vertex 195 60 25
      vertex 195 62 20
      vertex 195 70 25
    endloop
  endfacet
  facet normal 1 0 0
    outer loop
      vertex 195 60 10
      vertex 195 62 20
      vertex 195 60 25
    endloop
  endfacet
  facet normal 1 0 0
    outer loop
      vertex 195 62 20
      vertex 195 60 10
      vertex 195 62 10
    endloop
  endfacet
  facet normal 0 0 -1
    outer loop
      vertex 0 9.94522 0
      vertex 10 60 0
      vertex 10 9.94522 0
    endloop
  endfacet
  facet normal -0 0 -1
    outer loop
      vertex 10 60 0
      vertex 0 9.94522 0
      vertex 10 70 0
    endloop
  endfacet
  facet normal 0 0 -1
    outer loop
      vertex 0 150 0
      vertex 10 70 0
      vertex 0 9.94522 0
    endloop
  endfacet
  facet normal 0 0 -1
    outer loop
      vertex 10 70 0
      vertex 0 150 0
      vertex 10 150 0
    endloop
  endfacet
  facet normal 0 0 -1
    outer loop
      vertex 10 60 0
      vertex 190 70 0
      vertex 190 60 0
    endloop
  endfacet
  facet normal -0 0 -1
    outer loop
      vertex 190 70 0
      vertex 10 60 0
      vertex 10 70 0
    endloop
  endfacet
  facet normal 0 0 -1
    outer loop
      vertex 190 60 0
      vertex 200 9.94522 0
      vertex 190 9.94522 0
    endloop
  endfacet
  facet normal 0 0 -1
    outer loop
      vertex 190 70 0
      vertex 200 9.94522 0
      vertex 190 60 0
    endloop
  endfacet
  facet normal 0 0 -1
    outer loop
      vertex 200 9.94522 0
      vertex 190 70 0
      vertex 200 150 0
    endloop
  endfacet
  facet normal -0 0 -1
    outer loop
      vertex 200 150 0
      vertex 190 70 0
      vertex 190 150 0
    endloop
  endfacet
  facet normal 0 -1 0
    outer loop
      vertex 10 60 0
      vertex 190 60 10
      vertex 10 60 10
    endloop
  endfacet
  facet normal 0 -1 -0
    outer loop
      vertex 190 60 10
      vertex 10 60 0
      vertex 190 60 0
    endloop
  endfacet
  facet normal 0 -1 0
    outer loop
      vertex 10 60 10
      vertex 5 60 25
      vertex 5 60 10
    endloop
  endfacet
  facet normal 0 -1 0
    outer loop
      vertex 5 60 25
      vertex 10 60 10
      vertex 195 60 25
    endloop
  endfacet
  facet normal 0 -1 0
    outer loop
      vertex 190 60 10
      vertex 195 60 25
      vertex 10 60 10
    endloop
  endfacet
  facet normal 0 -1 -0
    outer loop
      vertex 195 60 25
      vertex 190 60 10
      vertex 195 60 10
    endloop
  endfacet
  facet normal 0 1 -0
    outer loop
      vertex 195 70 20
      vertex 5 70 25
      vertex 195 70 25
    endloop
  endfacet
  facet normal 0 1 0
    outer loop
      vertex 5 70 25
      vertex 195 70 20
      vertex 5 70 20
    endloop
  endfacet
  facet normal 0 1 -0
    outer loop
      vertex 190 70 0
      vertex 10 70 10
      vertex 190 70 10
    endloop
  endfacet
  facet normal 0 1 0
    outer loop
      vertex 10 70 10
      vertex 190 70 0
      vertex 10 70 0
    endloop
  endfacet
  facet normal 0 0 -1
    outer loop
      vertex 5 62 20
      vertex 195 70 20
      vertex 195 62 20
    endloop
  endfacet
  facet normal -0 0 -1
    outer loop
      vertex 195 70 20
      vertex 5 62 20
      vertex 5 70 20
    endloop
  endfacet
  facet normal -0 0 1
    outer loop
      vertex 0 150 10
      vertex 10 70 10
      vertex 10 150 10
    endloop
  endfacet
  facet normal 0 0 1
    outer loop
      vertex 10 70 10
      vertex 5 62 10
      vertex 10 62 10
    endloop
  endfacet
  facet normal 0 0 1
    outer loop
      vertex 0 0 10
      vertex 5 62 10
      vertex 0 150 10
    endloop
  endfacet
  facet normal 0 0 1
    outer loop
      vertex 10 70 10
      vertex 0 150 10
      vertex 5 62 10
    endloop
  endfacet
  facet normal -0 0 1
    outer loop
      vertex 5 60 10
      vertex 10 0 10
      vertex 10 60 10
    endloop
  endfacet
  facet normal 0 0 1
    outer loop
      vertex 5 60 10
      vertex 0 0 10
      vertex 10 0 10
    endloop
  endfacet
  facet normal 0 0 1
    outer loop
      vertex 5 62 10
      vertex 0 0 10
      vertex 5 60 10
    endloop
  endfacet
  facet normal 0 0 1
    outer loop
      vertex 200 150 10
      vertex 195 62 10
      vertex 200 0 10
    endloop
  endfacet
  facet normal 0 0 1
    outer loop
      vertex 190 70 10
      vertex 200 150 10
      vertex 190 150 10
    endloop
  endfacet
  facet normal 0 0 1
    outer loop
      vertex 200 150 10
      vertex 190 70 10
      vertex 195 62 10
    endloop
  endfacet
  facet normal 0 0 1
    outer loop
      vertex 195 62 10
      vertex 190 70 10
      vertex 190 62 10
    endloop
  endfacet
  facet normal -0 0 1
    outer loop
      vertex 195 60 10
      vertex 200 0 10
      vertex 195 62 10
    endloop
  endfacet
  facet normal 0 0 1
    outer loop
      vertex 190 0 10
      vertex 195 60 10
      vertex 190 60 10
    endloop
  endfacet
  facet normal 0 0 1
    outer loop
      vertex 195 60 10
      vertex 190 0 10
      vertex 200 0 10
    endloop
  endfacet
  facet normal -0 0 1
    outer loop
      vertex 10 70 10
      vertex 190 62 10
      vertex 190 70 10
    endloop
  endfacet
  facet normal 0 0 1
    outer loop
      vertex 190 62 10
      vertex 10 70 10
      vertex 10 62 10
    endloop
  endfacet
  facet normal 0 1 0
    outer loop
      vertex 190 62 10
      vertex 195 62 20
      vertex 195 62 10
    endloop
  endfacet
  facet normal 0 1 0
    outer loop
      vertex 195 62 20
      vertex 190 62 10
      vertex 5 62 20
    endloop
  endfacet
  facet normal 0 1 -0
    outer loop
      vertex 10 62 10
      vertex 5 62 20
      vertex 190 62 10
    endloop
  endfacet
  facet normal 0 1 0
    outer loop
      vertex 5 62 20
      vertex 10 62 10
      vertex 5 62 10
    endloop
  endfacet
  facet normal -1 -0 0
    outer loop
      vertex 0 9.94522 -1.04528
      vertex 0 9.51056 -3.09017
      vertex 0 9.94522 0
    endloop
  endfacet
  facet normal -1 0 0
    outer loop
      vertex 0 9.94522 0
      vertex 0 150 10
      vertex 0 150 0
    endloop
  endfacet
  facet normal -1 0 0
    outer loop
      vertex 0 8.66025 -5
      vertex 0 9.94522 0
      vertex 0 9.51056 -3.09017
    endloop
  endfacet
  facet normal -1 0 0
    outer loop
      vertex 0 7.43145 -6.69131
      vertex 0 9.94522 0
      vertex 0 8.66025 -5
    endloop
  endfacet
  facet normal -1 0 0
    outer loop
      vertex 0 5.87785 -8.09017
      vertex 0 9.94522 0
      vertex 0 7.43145 -6.69131
    endloop
  endfacet
  facet normal -1 0 0
    outer loop
      vertex 0 4.06737 -9.13545
      vertex 0 9.94522 0
      vertex 0 5.87785 -8.09017
    endloop
  endfacet
  facet normal -1 0 0
    outer loop
      vertex 0 2.07912 -9.78148
      vertex 0 9.94522 0
      vertex 0 4.06737 -9.13545
    endloop
  endfacet
  facet normal -1 0 0
    outer loop
      vertex 0 0 -10
      vertex 0 9.94522 0
      vertex 0 2.07912 -9.78148
    endloop
  endfacet
  facet normal -1 0 0
    outer loop
      vertex 0 9.94522 0
      vertex 0 0 10
      vertex 0 150 10
    endloop
  endfacet
  facet normal -1 0 0
    outer loop
      vertex 0 0 -10
      vertex 0 0 10
      vertex 0 9.94522 0
    endloop
  endfacet
  facet normal -1 0 0
    outer loop
      vertex 0 -2.07912 -9.78148
      vertex 0 0 10
      vertex 0 0 -10
    endloop
  endfacet
  facet normal -1 0 0
    outer loop
      vertex 0 -2.07912 -9.78148
      vertex 0 -2.07912 9.78148
      vertex 0 0 10
    endloop
  endfacet
  facet normal -1 0 0
    outer loop
      vertex 0 -4.06737 -9.13545
      vertex 0 -2.07912 9.78148
      vertex 0 -2.07912 -9.78148
    endloop
  endfacet
  facet normal -1 0 0
    outer loop
      vertex 0 -4.06737 -9.13545
      vertex 0 -4.06737 9.13545
      vertex 0 -2.07912 9.78148
    endloop
  endfacet
  facet normal -1 0 0
    outer loop
      vertex 0 -5.87785 -8.09017
      vertex 0 -4.06737 9.13545
      vertex 0 -4.06737 -9.13545
    endloop
  endfacet
  facet normal -1 0 0
    outer loop
      vertex 0 -5.87785 -8.09017
      vertex 0 -5.87785 8.09017
      vertex 0 -4.06737 9.13545
    endloop
  endfacet
  facet normal -1 0 0
    outer loop
      vertex 0 -7.43145 -6.69131
      vertex 0 -5.87785 8.09017
      vertex 0 -5.87785 -8.09017
    endloop
  endfacet
  facet normal -1 0 0
    outer loop
      vertex 0 -7.43145 -6.69131
      vertex 0 -7.43145 6.69131
      vertex 0 -5.87785 8.09017
    endloop
  endfacet
  facet normal -1 0 0
    outer loop
      vertex 0 -8.66025 -5
      vertex 0 -7.43145 6.69131
      vertex 0 -7.43145 -6.69131
    endloop
  endfacet
  facet normal -1 0 0
    outer loop
      vertex 0 -8.66025 -5
      vertex 0 -8.66025 5
      vertex 0 -7.43145 6.69131
    endloop
  endfacet
  facet normal -1 0 0
    outer loop
      vertex 0 -9.51056 -3.09017
      vertex 0 -8.66025 5
      vertex 0 -8.66025 -5
    endloop
  endfacet
  facet normal -1 0 0
    outer loop
      vertex 0 -9.51056 -3.09017
      vertex 0 -9.51056 3.09017
      vertex 0 -8.66025 5
    endloop
  endfacet
  facet normal -1 0 0
    outer loop
      vertex 0 -9.94522 -1.04528
      vertex 0 -9.51056 3.09017
      vertex 0 -9.51056 -3.09017
    endloop
  endfacet
  facet normal -1 0 0
    outer loop
      vertex 0 -9.51056 3.09017
      vertex 0 -9.94522 -1.04528
      vertex 0 -9.94522 1.04528
    endloop
  endfacet
  facet normal 1 0 0
    outer loop
      vertex 10 60 10
      vertex 10 9.94522 0
      vertex 10 60 0
    endloop
  endfacet
  facet normal 1 0 0
    outer loop
      vertex 10 0 3.09017
      vertex 10 9.94522 -1.04528
      vertex 10 9.94522 0
    endloop
  endfacet
  facet normal 1 0 0
    outer loop
      vertex 10 9.94522 -1.04528
      vertex 10 0 3.09017
      vertex 10 9.51056 -3.09017
    endloop
  endfacet
  facet normal 1 0 0
    outer loop
      vertex 10 9.51056 -3.09017
      vertex 10 0 3.09017
      vertex 10 8.66025 -5
    endloop
  endfacet
  facet normal 1 0 0
    outer loop
      vertex 10 8.66025 -5
      vertex 10 0 3.09017
      vertex 10 7.43145 -6.69131
    endloop
  endfacet
  facet normal 1 0 0
    outer loop
      vertex 10 7.43145 -6.69131
      vertex 10 0 3.09017
      vertex 10 5.87785 -8.09017
    endloop
  endfacet
  facet normal 1 0 0
    outer loop
      vertex 10 5.87785 -8.09017
      vertex 10 0 3.09017
      vertex 10 4.06737 -9.13545
    endloop
  endfacet
  facet normal 1 -0 0
    outer loop
      vertex 10 0 10
      vertex 10 9.94522 0
      vertex 10 60 10
    endloop
  endfacet
  facet normal 1 -0 0
    outer loop
      vertex 10 0 3.09017
      vertex 10 9.94522 0
      vertex 10 0 10
    endloop
  endfacet
  facet normal 1 0 0
    outer loop
      vertex 10 4.06737 -9.13545
      vertex 10 0 3.09017
      vertex 10 2.07912 -9.78148
    endloop
  endfacet
  facet normal 1 0 0
    outer loop
      vertex 10 0 3.09017
      vertex 10 0 -10
      vertex 10 2.07912 -9.78148
    endloop
  endfacet
  facet normal 1 0 0
    outer loop
      vertex 10 0 3.09017
      vertex 10 -2.07912 -9.78148
      vertex 10 0 -10
    endloop
  endfacet
  facet normal 1 0 0
    outer loop
      vertex 10 0 3.09017
      vertex 10 -4.06737 -9.13545
      vertex 10 -2.07912 -9.78148
    endloop
  endfacet
  facet normal 1 0 0
    outer loop
      vertex 10 0 3.09017
      vertex 10 -5.87785 -8.09017
      vertex 10 -4.06737 -9.13545
    endloop
  endfacet
  facet normal 1 0 0
    outer loop
      vertex 10 0 3.09017
      vertex 10 -7.43145 -6.69131
      vertex 10 -5.87785 -8.09017
    endloop
  endfacet
  facet normal 1 0 0
    outer loop
      vertex 10 0 3.09017
      vertex 10 -8.66025 -5
      vertex 10 -7.43145 -6.69131
    endloop
  endfacet
  facet normal 1 0 0
    outer loop
      vertex 10 -9.94522 1.04528
      vertex 10 0 3.09017
      vertex 10 -9.51056 3.09017
    endloop
  endfacet
  facet normal 1 0 0
    outer loop
      vertex 10 0 3.09017
      vertex 10 -9.51056 -3.09017
      vertex 10 -8.66025 -5
    endloop
  endfacet
  facet normal 1 0 0
    outer loop
      vertex 10 -9.94522 -1.04528
      vertex 10 0 3.09017
      vertex 10 -9.94522 1.04528
    endloop
  endfacet
  facet normal 1 0 0
    outer loop
      vertex 10 0 3.09017
      vertex 10 -9.94522 -1.04528
      vertex 10 -9.51056 -3.09017
    endloop
  endfacet
  facet normal 1 -0 0
    outer loop
      vertex 10 70 10
      vertex 10 150 0
      vertex 10 150 10
    endloop
  endfacet
  facet normal 1 0 0
    outer loop
      vertex 10 150 0
      vertex 10 70 10
      vertex 10 70 0
    endloop
  endfacet
  facet normal 0 1 -0
    outer loop
      vertex 10 150 0
      vertex 0 150 10
      vertex 10 150 10
    endloop
  endfacet
  facet normal 0 1 0
    outer loop
      vertex 0 150 10
      vertex 10 150 0
      vertex 0 150 0
    endloop
  endfacet
  facet normal 0 0.104529 -0.994522
    outer loop
      vertex 10 2.07912 -9.78148
      vertex 0 0 -10
      vertex 0 2.07912 -9.78148
    endloop
  endfacet
  facet normal 9.4845e-008 0.104528 -0.994522
    outer loop
      vertex 10 0 -10
      vertex 0 0 -10
      vertex 10 2.07912 -9.78148
    endloop
  endfacet
  facet normal 0 1 -0
    outer loop
      vertex 10 9.94522 -1.04528
      vertex 0 9.94522 0
      vertex 10 9.94522 0
    endloop
  endfacet
  facet normal 0 1 0
    outer loop
      vertex 0 9.94522 0
      vertex 10 9.94522 -1.04528
      vertex 0 9.94522 -1.04528
    endloop
  endfacet
  facet normal 0 -0.978148 0.207911
    outer loop
      vertex 0 -9.94522 1.04528
      vertex 10 -9.51056 3.09017
      vertex 0 -9.51056 3.09017
    endloop
  endfacet
  facet normal 0 -0.978148 0.207911
    outer loop
      vertex 10 -9.51056 3.09017
      vertex 0 -9.94522 1.04528
      vertex 10 -9.94522 1.04528
    endloop
  endfacet
  facet normal 0 0.809017 -0.587785
    outer loop
      vertex 10 7.43145 -6.69131
      vertex 0 7.43145 -6.69131
      vertex 0 8.66025 -5
    endloop
  endfacet
  facet normal 0 0.913545 -0.406737
    outer loop
      vertex 10 9.51056 -3.09017
      vertex 0 8.66025 -5
      vertex 0 9.51056 -3.09017
    endloop
  endfacet
  facet normal 0 0.978148 -0.207911
    outer loop
      vertex 10 9.51056 -3.09017
      vertex 0 9.94522 -1.04528
      vertex 10 9.94522 -1.04528
    endloop
  endfacet
  facet normal 0 0.978148 -0.207911
    outer loop
      vertex 0 9.94522 -1.04528
      vertex 10 9.51056 -3.09017
      vertex 0 9.51056 -3.09017
    endloop
  endfacet
  facet normal 1 0 1.38017e-007
    outer loop
      vertex 10 0 3.09017
      vertex 10 0 10
      vertex 10 -9.51056 3.09017
    endloop
  endfacet
  facet normal 0 -0.669131 -0.743145
    outer loop
      vertex 0 -7.43145 -6.69131
      vertex 10 -5.87785 -8.09017
      vertex 10 -7.43145 -6.69131
    endloop
  endfacet
  facet normal -0 -0.669131 -0.743145
    outer loop
      vertex 10 -5.87785 -8.09017
      vertex 0 -7.43145 -6.69131
      vertex 0 -5.87785 -8.09017
    endloop
  endfacet
  facet normal 0 -0.5 0.866026
    outer loop
      vertex 0 -4.06737 9.13545
      vertex 10 -5.87785 8.09017
      vertex 10 -4.06737 9.13545
    endloop
  endfacet
  facet normal 0 -0.5 0.866026
    outer loop
      vertex 10 -5.87785 8.09017
      vertex 0 -4.06737 9.13545
      vertex 0 -5.87785 8.09017
    endloop
  endfacet
  facet normal 0 0.309017 -0.951057
    outer loop
      vertex 0 2.07912 -9.78148
      vertex 10 4.06737 -9.13545
      vertex 10 2.07912 -9.78148
    endloop
  endfacet
  facet normal 0 0.309017 -0.951057
    outer loop
      vertex 10 4.06737 -9.13545
      vertex 0 2.07912 -9.78148
      vertex 0 4.06737 -9.13545
    endloop
  endfacet
  facet normal 0 0.669131 -0.743145
    outer loop
      vertex 0 5.87785 -8.09017
      vertex 10 7.43145 -6.69131
      vertex 10 5.87785 -8.09017
    endloop
  endfacet
  facet normal 0 0.669131 -0.743145
    outer loop
      vertex 10 7.43145 -6.69131
      vertex 0 5.87785 -8.09017
      vertex 0 7.43145 -6.69131
    endloop
  endfacet
  facet normal 3.87895e-008 0.913545 -0.406737
    outer loop
      vertex 10 8.66025 -5
      vertex 0 8.66025 -5
      vertex 10 9.51056 -3.09017
    endloop
  endfacet
  facet normal 1 -1.77506e-006 1.28966e-006
    outer loop
      vertex 10 -7.43145 6.69131
      vertex 10 -8.66025 5
      vertex 10 -9.51056 3.09017
    endloop
  endfacet
  facet normal 0 -0.309017 0.951057
    outer loop
      vertex 0 -2.07912 9.78148
      vertex 10 -4.06737 9.13545
      vertex 10 -2.07912 9.78148
    endloop
  endfacet
  facet normal 0 -0.309017 0.951057
    outer loop
      vertex 10 -4.06737 9.13545
      vertex 0 -2.07912 9.78148
      vertex 0 -4.06737 9.13545
    endloop
  endfacet
  facet normal 1 -4.96616e-007 5.51547e-007
    outer loop
      vertex 10 -5.87785 8.09017
      vertex 10 -7.43145 6.69131
      vertex 10 -9.51056 3.09017
    endloop
  endfacet
  facet normal -0 -0.809017 -0.587785
    outer loop
      vertex 10 -7.43145 -6.69131
      vertex 0 -8.66025 -5
      vertex 0 -7.43145 -6.69131
    endloop
  endfacet
  facet normal 0 -0.104529 0.994522
    outer loop
      vertex 0 0 10
      vertex 10 -2.07912 9.78148
      vertex 10 0 10
    endloop
  endfacet
  facet normal 0 -0.104529 0.994522
    outer loop
      vertex 10 -2.07912 9.78148
      vertex 0 0 10
      vertex 0 -2.07912 9.78148
    endloop
  endfacet
  facet normal 0 0.5 -0.866026
    outer loop
      vertex 0 4.06737 -9.13545
      vertex 10 5.87785 -8.09017
      vertex 10 4.06737 -9.13545
    endloop
  endfacet
  facet normal 0 0.5 -0.866026
    outer loop
      vertex 10 5.87785 -8.09017
      vertex 0 4.06737 -9.13545
      vertex 0 5.87785 -8.09017
    endloop
  endfacet
  facet normal 5.60556e-008 0.809017 -0.587785
    outer loop
      vertex 10 7.43145 -6.69131
      vertex 0 8.66025 -5
      vertex 10 8.66025 -5
    endloop
  endfacet
  facet normal 1 -1.8969e-007 3.28553e-007
    outer loop
      vertex 10 -4.06737 9.13545
      vertex 10 -5.87785 8.09017
      vertex 10 -9.51056 3.09017
    endloop
  endfacet
  facet normal 0 -0.913545 0.406737
    outer loop
      vertex 0 -9.51056 3.09017
      vertex 10 -8.66025 5
      vertex 0 -8.66025 5
    endloop
  endfacet
  facet normal 0 -0.913545 0.406737
    outer loop
      vertex 10 -8.66025 5
      vertex 0 -9.51056 3.09017
      vertex 10 -9.51056 3.09017
    endloop
  endfacet
  facet normal 0 -0.669131 0.743145
    outer loop
      vertex 0 -5.87785 8.09017
      vertex 10 -7.43145 6.69131
      vertex 10 -5.87785 8.09017
    endloop
  endfacet
  facet normal 0 -0.669131 0.743145
    outer loop
      vertex 10 -7.43145 6.69131
      vertex 0 -5.87785 8.09017
      vertex 0 -7.43145 6.69131
    endloop
  endfacet
  facet normal 0 -0.809017 0.587785
    outer loop
      vertex 0 -8.66025 5
      vertex 10 -7.43145 6.69131
      vertex 0 -7.43145 6.69131
    endloop
  endfacet
  facet normal 0 -0.809017 0.587785
    outer loop
      vertex 10 -7.43145 6.69131
      vertex 0 -8.66025 5
      vertex 10 -8.66025 5
    endloop
  endfacet
  facet normal 5.60556e-008 -0.809017 -0.587785
    outer loop
      vertex 10 -8.66025 -5
      vertex 0 -8.66025 -5
      vertex 10 -7.43145 -6.69131
    endloop
  endfacet
  facet normal 0 -1 0
    outer loop
      vertex 0 -9.94522 -1.04528
      vertex 10 -9.94522 1.04528
      vertex 0 -9.94522 1.04528
    endloop
  endfacet
  facet normal 0 -1 -0
    outer loop
      vertex 10 -9.94522 1.04528
      vertex 0 -9.94522 -1.04528
      vertex 10 -9.94522 -1.04528
    endloop
  endfacet
  facet normal 9.4845e-008 -0.104528 -0.994522
    outer loop
      vertex 10 -2.07912 -9.78148
      vertex 0 0 -10
      vertex 10 0 -10
    endloop
  endfacet
  facet normal 0 -0.309017 -0.951057
    outer loop
      vertex 0 -4.06737 -9.13545
      vertex 10 -2.07912 -9.78148
      vertex 10 -4.06737 -9.13545
    endloop
  endfacet
  facet normal -0 -0.309017 -0.951057
    outer loop
      vertex 10 -2.07912 -9.78148
      vertex 0 -4.06737 -9.13545
      vertex 0 -2.07912 -9.78148
    endloop
  endfacet
  facet normal 1 -7.24551e-008 2.22994e-007
    outer loop
      vertex 10 -2.07912 9.78148
      vertex 10 -4.06737 9.13545
      vertex 10 -9.51056 3.09017
    endloop
  endfacet
  facet normal 1 -1.69597e-008 1.6136e-007
    outer loop
      vertex 10 0 10
      vertex 10 -2.07912 9.78148
      vertex 10 -9.51056 3.09017
    endloop
  endfacet
  facet normal 3.87895e-008 -0.913545 -0.406737
    outer loop
      vertex 10 -9.51056 -3.09017
      vertex 0 -8.66025 -5
      vertex 10 -8.66025 -5
    endloop
  endfacet
  facet normal -0 -0.913545 -0.406737
    outer loop
      vertex 10 -9.51056 -3.09017
      vertex 0 -9.51056 -3.09017
      vertex 0 -8.66025 -5
    endloop
  endfacet
  facet normal 0 -0.5 -0.866026
    outer loop
      vertex 0 -5.87785 -8.09017
      vertex 10 -4.06737 -9.13545
      vertex 10 -5.87785 -8.09017
    endloop
  endfacet
  facet normal -0 -0.5 -0.866026
    outer loop
      vertex 10 -4.06737 -9.13545
      vertex 0 -5.87785 -8.09017
      vertex 0 -4.06737 -9.13545
    endloop
  endfacet
  facet normal -0 -0.104529 -0.994522
    outer loop
      vertex 10 -2.07912 -9.78148
      vertex 0 -2.07912 -9.78148
      vertex 0 0 -10
    endloop
  endfacet
  facet normal 0 -0.978148 -0.207911
    outer loop
      vertex 0 -9.51056 -3.09017
      vertex 10 -9.94522 -1.04528
      vertex 0 -9.94522 -1.04528
    endloop
  endfacet
  facet normal 0 -0.978148 -0.207911
    outer loop
      vertex 10 -9.94522 -1.04528
      vertex 0 -9.51056 -3.09017
      vertex 10 -9.51056 -3.09017
    endloop
  endfacet
  facet normal -1 -0 0
    outer loop
      vertex 190 9.94522 -1.04528
      vertex 190 9.51056 -3.09017
      vertex 190 9.94522 0
    endloop
  endfacet
  facet normal -1 0 0
    outer loop
      vertex 190 9.94522 0
      vertex 190 60 10
      vertex 190 60 0
    endloop
  endfacet
  facet normal -1 0 0
    outer loop
      vertex 190 8.66025 -5
      vertex 190 9.94522 0
      vertex 190 9.51056 -3.09017
    endloop
  endfacet
  facet normal -1 0 0
    outer loop
      vertex 190 7.43145 -6.69131
      vertex 190 9.94522 0
      vertex 190 8.66025 -5
    endloop
  endfacet
  facet normal -1 0 0
    outer loop
      vertex 190 5.87785 -8.09017
      vertex 190 9.94522 0
      vertex 190 7.43145 -6.69131
    endloop
  endfacet
  facet normal -1 0 0
    outer loop
      vertex 190 4.06737 -9.13545
      vertex 190 9.94522 0
      vertex 190 5.87785 -8.09017
    endloop
  endfacet
  facet normal -1 0 0
    outer loop
      vertex 190 2.07912 -9.78148
      vertex 190 9.94522 0
      vertex 190 4.06737 -9.13545
    endloop
  endfacet
  facet normal -1 0 0
    outer loop
      vertex 190 0 -10
      vertex 190 9.94522 0
      vertex 190 2.07912 -9.78148
    endloop
  endfacet
  facet normal -1 0 0
    outer loop
      vertex 190 9.94522 0
      vertex 190 0 10
      vertex 190 60 10
    endloop
  endfacet
  facet normal -1 0 0
    outer loop
      vertex 190 0 -10
      vertex 190 0 10
      vertex 190 9.94522 0
    endloop
  endfacet
  facet normal -1 0 0
    outer loop
      vertex 190 -2.07912 -9.78148
      vertex 190 0 10
      vertex 190 0 -10
    endloop
  endfacet
  facet normal -1 0 0
    outer loop
      vertex 190 -2.07912 -9.78148
      vertex 190 -2.07912 9.78148
      vertex 190 0 10
    endloop
  endfacet
  facet normal -1 0 0
    outer loop
      vertex 190 -4.06737 -9.13545
      vertex 190 -2.07912 9.78148
      vertex 190 -2.07912 -9.78148
    endloop
  endfacet
  facet normal -1 0 0
    outer loop
      vertex 190 -4.06737 -9.13545
      vertex 190 -4.06737 9.13545
      vertex 190 -2.07912 9.78148
    endloop
  endfacet
  facet normal -1 0 0
    outer loop
      vertex 190 -5.87785 -8.09017
      vertex 190 -4.06737 9.13545
      vertex 190 -4.06737 -9.13545
    endloop
  endfacet
  facet normal -1 0 0
    outer loop
      vertex 190 -5.87785 -8.09017
      vertex 190 -5.87785 8.09017
      vertex 190 -4.06737 9.13545
    endloop
  endfacet
  facet normal -1 0 0
    outer loop
      vertex 190 -7.43145 -6.69131
      vertex 190 -5.87785 8.09017
      vertex 190 -5.87785 -8.09017
    endloop
  endfacet
  facet normal -1 0 0
    outer loop
      vertex 190 -7.43145 -6.69131
      vertex 190 -7.43145 6.69131
      vertex 190 -5.87785 8.09017
    endloop
  endfacet
  facet normal -1 0 0
    outer loop
      vertex 190 -8.66025 -5
      vertex 190 -7.43145 6.69131
      vertex 190 -7.43145 -6.69131
    endloop
  endfacet
  facet normal -1 0 0
    outer loop
      vertex 190 -8.66025 -5
      vertex 190 -8.66025 5
      vertex 190 -7.43145 6.69131
    endloop
  endfacet
  facet normal -1 0 0
    outer loop
      vertex 190 -9.51056 -3.09017
      vertex 190 -8.66025 5
      vertex 190 -8.66025 -5
    endloop
  endfacet
  facet normal -1 0 0
    outer loop
      vertex 190 -9.51056 -3.09017
      vertex 190 -9.51056 3.09017
      vertex 190 -8.66025 5
    endloop
  endfacet
  facet normal -1 0 0
    outer loop
      vertex 190 -9.94522 -1.04528
      vertex 190 -9.51056 3.09017
      vertex 190 -9.51056 -3.09017
    endloop
  endfacet
  facet normal -1 0 0
    outer loop
      vertex 190 -9.51056 3.09017
      vertex 190 -9.94522 -1.04528
      vertex 190 -9.94522 1.04528
    endloop
  endfacet
  facet normal -1 0 0
    outer loop
      vertex 190 70 0
      vertex 190 150 10
      vertex 190 150 0
    endloop
  endfacet
  facet normal -1 -0 0
    outer loop
      vertex 190 150 10
      vertex 190 70 0
      vertex 190 70 10
    endloop
  endfacet
  facet normal 1 0 0
    outer loop
      vertex 200 150 10
      vertex 200 9.94522 0
      vertex 200 150 0
    endloop
  endfacet
  facet normal 1 0 0
    outer loop
      vertex 200 0 3.09017
      vertex 200 9.94522 -1.04528
      vertex 200 9.94522 0
    endloop
  endfacet
  facet normal 1 0 0
    outer loop
      vertex 200 9.94522 -1.04528
      vertex 200 0 3.09017
      vertex 200 9.51056 -3.09017
    endloop
  endfacet
  facet normal 1 0 0
    outer loop
      vertex 200 9.51056 -3.09017
      vertex 200 0 3.09017
      vertex 200 8.66025 -5
    endloop
  endfacet
  facet normal 1 0 0
    outer loop
      vertex 200 8.66025 -5
      vertex 200 0 3.09017
      vertex 200 7.43145 -6.69131
    endloop
  endfacet
  facet normal 1 0 0
    outer loop
      vertex 200 7.43145 -6.69131
      vertex 200 0 3.09017
      vertex 200 5.87785 -8.09017
    endloop
  endfacet
  facet normal 1 0 0
    outer loop
      vertex 200 5.87785 -8.09017
      vertex 200 0 3.09017
      vertex 200 4.06737 -9.13545
    endloop
  endfacet
  facet normal 1 -0 0
    outer loop
      vertex 200 0 10
      vertex 200 9.94522 0
      vertex 200 150 10
    endloop
  endfacet
  facet normal 1 -0 0
    outer loop
      vertex 200 0 3.09017
      vertex 200 9.94522 0
      vertex 200 0 10
    endloop
  endfacet
  facet normal 1 0 0
    outer loop
      vertex 200 4.06737 -9.13545
      vertex 200 0 3.09017
      vertex 200 2.07912 -9.78148
    endloop
  endfacet
  facet normal 1 0 0
    outer loop
      vertex 200 0 3.09017
      vertex 200 0 -10
      vertex 200 2.07912 -9.78148
    endloop
  endfacet
  facet normal 1 0 0
    outer loop
      vertex 200 0 3.09017
      vertex 200 -2.07912 -9.78148
      vertex 200 0 -10
    endloop
  endfacet
  facet normal 1 0 0
    outer loop
      vertex 200 0 3.09017
      vertex 200 -4.06737 -9.13545
      vertex 200 -2.07912 -9.78148
    endloop
  endfacet
  facet normal 1 0 0
    outer loop
      vertex 200 0 3.09017
      vertex 200 -5.87785 -8.09017
      vertex 200 -4.06737 -9.13545
    endloop
  endfacet
  facet normal 1 0 0
    outer loop
      vertex 200 0 3.09017
      vertex 200 -7.43145 -6.69131
      vertex 200 -5.87785 -8.09017
    endloop
  endfacet
  facet normal 1 0 0
    outer loop
      vertex 200 0 3.09017
      vertex 200 -8.66025 -5
      vertex 200 -7.43145 -6.69131
    endloop
  endfacet
  facet normal 1 0 0
    outer loop
      vertex 200 -9.94522 1.04528
      vertex 200 0 3.09017
      vertex 200 -9.51056 3.09017
    endloop
  endfacet
  facet normal 1 0 0
    outer loop
      vertex 200 0 3.09017
      vertex 200 -9.51056 -3.09017
      vertex 200 -8.66025 -5
    endloop
  endfacet
  facet normal 1 0 0
    outer loop
      vertex 200 -9.94522 -1.04528
      vertex 200 0 3.09017
      vertex 200 -9.94522 1.04528
    endloop
  endfacet
  facet normal 1 0 0
    outer loop
      vertex 200 0 3.09017
      vertex 200 -9.94522 -1.04528
      vertex 200 -9.51056 -3.09017
    endloop
  endfacet
  facet normal 0 1 -0
    outer loop
      vertex 200 150 0
      vertex 190 150 10
      vertex 200 150 10
    endloop
  endfacet
  facet normal 0 1 0
    outer loop
      vertex 190 150 10
      vertex 200 150 0
      vertex 190 150 0
    endloop
  endfacet
  facet normal 0 0.104529 -0.994522
    outer loop
      vertex 200 2.07912 -9.78148
      vertex 190 0 -10
      vertex 190 2.07912 -9.78148
    endloop
  endfacet
  facet normal 9.4845e-008 0.104528 -0.994522
    outer loop
      vertex 200 0 -10
      vertex 190 0 -10
      vertex 200 2.07912 -9.78148
    endloop
  endfacet
  facet normal 0 1 -0
    outer loop
      vertex 200 9.94522 -1.04528
      vertex 190 9.94522 0
      vertex 200 9.94522 0
    endloop
  endfacet
  facet normal 0 1 0
    outer loop
      vertex 190 9.94522 0
      vertex 200 9.94522 -1.04528
      vertex 190 9.94522 -1.04528
    endloop
  endfacet
  facet normal 0 -0.978148 0.207911
    outer loop
      vertex 190 -9.94522 1.04528
      vertex 200 -9.51056 3.09017
      vertex 190 -9.51056 3.09017
    endloop
  endfacet
  facet normal 0 -0.978148 0.207911
    outer loop
      vertex 200 -9.51056 3.09017
      vertex 190 -9.94522 1.04528
      vertex 200 -9.94522 1.04528
    endloop
  endfacet
  facet normal 0 0.809017 -0.587785
    outer loop
      vertex 200 7.43145 -6.69131
      vertex 190 7.43145 -6.69131
      vertex 190 8.66025 -5
    endloop
  endfacet
  facet normal 0 0.913545 -0.406737
    outer loop
      vertex 200 9.51056 -3.09017
      vertex 190 8.66025 -5
      vertex 190 9.51056 -3.09017
    endloop
  endfacet
  facet normal 0 0.978148 -0.207911
    outer loop
      vertex 200 9.51056 -3.09017
      vertex 190 9.94522 -1.04528
      vertex 200 9.94522 -1.04528
    endloop
  endfacet
  facet normal 0 0.978148 -0.207911
    outer loop
      vertex 190 9.94522 -1.04528
      vertex 200 9.51056 -3.09017
      vertex 190 9.51056 -3.09017
    endloop
  endfacet
  facet normal 1 0 -0
    outer loop
      vertex 200 0 3.09017
      vertex 200 0 10
      vertex 200 -9.51056 3.09017
    endloop
  endfacet
  facet normal 0 -0.669131 -0.743145
    outer loop
      vertex 190 -7.43145 -6.69131
      vertex 200 -5.87785 -8.09017
      vertex 200 -7.43145 -6.69131
    endloop
  endfacet
  facet normal -0 -0.669131 -0.743145
    outer loop
      vertex 200 -5.87785 -8.09017
      vertex 190 -7.43145 -6.69131
      vertex 190 -5.87785 -8.09017
    endloop
  endfacet
  facet normal 0 -0.5 0.866026
    outer loop
      vertex 190 -4.06737 9.13545
      vertex 200 -5.87785 8.09017
      vertex 200 -4.06737 9.13545
    endloop
  endfacet
  facet normal 0 -0.5 0.866026
    outer loop
      vertex 200 -5.87785 8.09017
      vertex 190 -4.06737 9.13545
      vertex 190 -5.87785 8.09017
    endloop
  endfacet
  facet normal 0 0.309017 -0.951057
    outer loop
      vertex 190 2.07912 -9.78148
      vertex 200 4.06737 -9.13545
      vertex 200 2.07912 -9.78148
    endloop
  endfacet
  facet normal 0 0.309017 -0.951057
    outer loop
      vertex 200 4.06737 -9.13545
      vertex 190 2.07912 -9.78148
      vertex 190 4.06737 -9.13545
    endloop
  endfacet
  facet normal 0 0.669131 -0.743145
    outer loop
      vertex 190 5.87785 -8.09017
      vertex 200 7.43145 -6.69131
      vertex 200 5.87785 -8.09017
    endloop
  endfacet
  facet normal 0 0.669131 -0.743145
    outer loop
      vertex 200 7.43145 -6.69131
      vertex 190 5.87785 -8.09017
      vertex 190 7.43145 -6.69131
    endloop
  endfacet
  facet normal 3.87895e-008 0.913545 -0.406737
    outer loop
      vertex 200 8.66025 -5
      vertex 190 8.66025 -5
      vertex 200 9.51056 -3.09017
    endloop
  endfacet
  facet normal 1 0 0
    outer loop
      vertex 200 -7.43145 6.69131
      vertex 200 -8.66025 5
      vertex 200 -9.51056 3.09017
    endloop
  endfacet
  facet normal 0 -0.309017 0.951057
    outer loop
      vertex 190 -2.07912 9.78148
      vertex 200 -4.06737 9.13545
      vertex 200 -2.07912 9.78148
    endloop
  endfacet
  facet normal 0 -0.309017 0.951057
    outer loop
      vertex 200 -4.06737 9.13545
      vertex 190 -2.07912 9.78148
      vertex 190 -4.06737 9.13545
    endloop
  endfacet
  facet normal 1 0 0
    outer loop
      vertex 200 -5.87785 8.09017
      vertex 200 -7.43145 6.69131
      vertex 200 -9.51056 3.09017
    endloop
  endfacet
  facet normal -0 -0.809017 -0.587785
    outer loop
      vertex 200 -7.43145 -6.69131
      vertex 190 -8.66025 -5
      vertex 190 -7.43145 -6.69131
    endloop
  endfacet
  facet normal 0 -0.104529 0.994522
    outer loop
      vertex 190 0 10
      vertex 200 -2.07912 9.78148
      vertex 200 0 10
    endloop
  endfacet
  facet normal 0 -0.104529 0.994522
    outer loop
      vertex 200 -2.07912 9.78148
      vertex 190 0 10
      vertex 190 -2.07912 9.78148
    endloop
  endfacet
  facet normal 0 0.5 -0.866026
    outer loop
      vertex 190 4.06737 -9.13545
      vertex 200 5.87785 -8.09017
      vertex 200 4.06737 -9.13545
    endloop
  endfacet
  facet normal 0 0.5 -0.866026
    outer loop
      vertex 200 5.87785 -8.09017
      vertex 190 4.06737 -9.13545
      vertex 190 5.87785 -8.09017
    endloop
  endfacet
  facet normal 5.60556e-008 0.809017 -0.587785
    outer loop
      vertex 200 7.43145 -6.69131
      vertex 190 8.66025 -5
      vertex 200 8.66025 -5
    endloop
  endfacet
  facet normal 1 0 0
    outer loop
      vertex 200 -4.06737 9.13545
      vertex 200 -5.87785 8.09017
      vertex 200 -9.51056 3.09017
    endloop
  endfacet
  facet normal 0 -0.913545 0.406737
    outer loop
      vertex 190 -9.51056 3.09017
      vertex 200 -8.66025 5
      vertex 190 -8.66025 5
    endloop
  endfacet
  facet normal 0 -0.913545 0.406737
    outer loop
      vertex 200 -8.66025 5
      vertex 190 -9.51056 3.09017
      vertex 200 -9.51056 3.09017
    endloop
  endfacet
  facet normal 0 -0.669131 0.743145
    outer loop
      vertex 190 -5.87785 8.09017
      vertex 200 -7.43145 6.69131
      vertex 200 -5.87785 8.09017
    endloop
  endfacet
  facet normal 0 -0.669131 0.743145
    outer loop
      vertex 200 -7.43145 6.69131
      vertex 190 -5.87785 8.09017
      vertex 190 -7.43145 6.69131
    endloop
  endfacet
  facet normal 0 -0.809017 0.587785
    outer loop
      vertex 190 -8.66025 5
      vertex 200 -7.43145 6.69131
      vertex 190 -7.43145 6.69131
    endloop
  endfacet
  facet normal 0 -0.809017 0.587785
    outer loop
      vertex 200 -7.43145 6.69131
      vertex 190 -8.66025 5
      vertex 200 -8.66025 5
    endloop
  endfacet
  facet normal 5.60556e-008 -0.809017 -0.587785
    outer loop
      vertex 200 -8.66025 -5
      vertex 190 -8.66025 -5
      vertex 200 -7.43145 -6.69131
    endloop
  endfacet
  facet normal 0 -1 0
    outer loop
      vertex 190 -9.94522 -1.04528
      vertex 200 -9.94522 1.04528
      vertex 190 -9.94522 1.04528
    endloop
  endfacet
  facet normal 0 -1 -0
    outer loop
      vertex 200 -9.94522 1.04528
      vertex 190 -9.94522 -1.04528
      vertex 200 -9.94522 -1.04528
    endloop
  endfacet
  facet normal 9.4845e-008 -0.104528 -0.994522
    outer loop
      vertex 200 -2.07912 -9.78148
      vertex 190 0 -10
      vertex 200 0 -10
    endloop
  endfacet
  facet normal 0 -0.309017 -0.951057
    outer loop
      vertex 190 -4.06737 -9.13545
      vertex 200 -2.07912 -9.78148
      vertex 200 -4.06737 -9.13545
    endloop
  endfacet
  facet normal -0 -0.309017 -0.951057
    outer loop
      vertex 200 -2.07912 -9.78148
      vertex 190 -4.06737 -9.13545
      vertex 190 -2.07912 -9.78148
    endloop
  endfacet
  facet normal 1 0 0
    outer loop
      vertex 200 -2.07912 9.78148
      vertex 200 -4.06737 9.13545
      vertex 200 -9.51056 3.09017
    endloop
  endfacet
  facet normal 1 0 0
    outer loop
      vertex 200 0 10
      vertex 200 -2.07912 9.78148
      vertex 200 -9.51056 3.09017
    endloop
  endfacet
  facet normal 3.87895e-008 -0.913545 -0.406737
    outer loop
      vertex 200 -9.51056 -3.09017
      vertex 190 -8.66025 -5
      vertex 200 -8.66025 -5
    endloop
  endfacet
  facet normal -0 -0.913545 -0.406737
    outer loop
      vertex 200 -9.51056 -3.09017
      vertex 190 -9.51056 -3.09017
      vertex 190 -8.66025 -5
    endloop
  endfacet
  facet normal 0 -0.5 -0.866026
    outer loop
      vertex 190 -5.87785 -8.09017
      vertex 200 -4.06737 -9.13545
      vertex 200 -5.87785 -8.09017
    endloop
  endfacet
  facet normal -0 -0.5 -0.866026
    outer loop
      vertex 200 -4.06737 -9.13545
      vertex 190 -5.87785 -8.09017
      vertex 190 -4.06737 -9.13545
    endloop
  endfacet
  facet normal -0 -0.104529 -0.994522
    outer loop
      vertex 200 -2.07912 -9.78148
      vertex 190 -2.07912 -9.78148
      vertex 190 0 -10
    endloop
  endfacet
  facet normal 0 -0.978148 -0.207911
    outer loop
      vertex 190 -9.51056 -3.09017
      vertex 200 -9.94522 -1.04528
      vertex 190 -9.94522 -1.04528
    endloop
  endfacet
  facet normal 0 -0.978148 -0.207911
    outer loop
      vertex 200 -9.94522 -1.04528
      vertex 190 -9.51056 -3.09017
      vertex 200 -9.51056 -3.09017
    endloop
  endfacet
endsolid OpenSCAD_Model
