solid OpenSCAD_Model
  facet normal -1 0 0
    outer loop
      vertex -32.5 30 51.9615
      vertex -32.5 13.3494 73.1218
      vertex -32.5 35 60.6218
    endloop
  endfacet
  facet normal -1 0 -0
    outer loop
      vertex -32.5 13.3494 73.1218
      vertex -32.5 30 51.9615
      vertex -32.5 8.34937 64.4615
    endloop
  endfacet
  facet normal 0 -0.866025 0.5
    outer loop
      vertex -32.5 8.34937 64.4615
      vertex 232.5 13.3494 73.1218
      vertex -32.5 13.3494 73.1218
    endloop
  endfacet
  facet normal 0 -0.866025 0.5
    outer loop
      vertex 232.5 13.3494 73.1218
      vertex -32.5 8.34937 64.4615
      vertex 232.5 8.34937 64.4615
    endloop
  endfacet
  facet normal 1 0 0
    outer loop
      vertex 232.5 13.3494 73.1218
      vertex 232.5 30 51.9615
      vertex 232.5 35 60.6218
    endloop
  endfacet
  facet normal 1 0 0
    outer loop
      vertex 232.5 30 51.9615
      vertex 232.5 13.3494 73.1218
      vertex 232.5 8.34937 64.4615
    endloop
  endfacet
  facet normal 0 0.866025 -0.5
    outer loop
      vertex 10 4.97261 8.61281
      vertex 0 30 51.9615
      vertex 10 30 51.9615
    endloop
  endfacet
  facet normal 0 0.866025 -0.5
    outer loop
      vertex 0 30 51.9615
      vertex 10 4.97261 8.61281
      vertex 0 4.97261 8.61281
    endloop
  endfacet
  facet normal 0 0.866025 -0.5
    outer loop
      vertex 200 4.97261 8.61281
      vertex 190 30 51.9615
      vertex 200 30 51.9615
    endloop
  endfacet
  facet normal 0 0.866025 -0.5
    outer loop
      vertex 190 30 51.9615
      vertex 200 4.97261 8.61281
      vertex 190 4.97261 8.61281
    endloop
  endfacet
  facet normal 0 0.866025 -0.5
    outer loop
      vertex 200 30 51.9615
      vertex 200 35 60.6218
      vertex 232.5 35 60.6218
    endloop
  endfacet
  facet normal 0 0.866025 -0.5
    outer loop
      vertex 200 35 60.6218
      vertex 200 30 51.9615
      vertex 190 35 60.6218
    endloop
  endfacet
  facet normal 0 0.866025 -0.5
    outer loop
      vertex 190 35 60.6218
      vertex 190 30 51.9615
      vertex 10 35 60.6218
    endloop
  endfacet
  facet normal 0 0.866025 -0.5
    outer loop
      vertex 10 30 51.9615
      vertex 10 35 60.6218
      vertex 190 30 51.9615
    endloop
  endfacet
  facet normal 0 0.866025 -0.5
    outer loop
      vertex 200 30 51.9615
      vertex 232.5 35 60.6218
      vertex 232.5 30 51.9615
    endloop
  endfacet
  facet normal 0 0.866025 -0.5
    outer loop
      vertex 190 35 60.6218
      vertex 200 30 51.9615
      vertex 190 30 51.9615
    endloop
  endfacet
  facet normal 0 0.866025 -0.5
    outer loop
      vertex 10 35 60.6218
      vertex 10 30 51.9615
      vertex 0 35 60.6218
    endloop
  endfacet
  facet normal 0 0.866025 -0.5
    outer loop
      vertex 0 30 51.9615
      vertex 0 35 60.6218
      vertex 10 30 51.9615
    endloop
  endfacet
  facet normal 0 0.866025 -0.5
    outer loop
      vertex 0 35 60.6218
      vertex 0 30 51.9615
      vertex -32.5 35 60.6218
    endloop
  endfacet
  facet normal 0 0.866025 -0.5
    outer loop
      vertex -32.5 35 60.6218
      vertex 0 30 51.9615
      vertex -32.5 30 51.9615
    endloop
  endfacet
  facet normal 0 0.866025 -0.5
    outer loop
      vertex 10 35 60.6218
      vertex 0 90 155.885
      vertex 10 90 155.885
    endloop
  endfacet
  facet normal 0 0.866025 -0.5
    outer loop
      vertex 0 90 155.885
      vertex 10 35 60.6218
      vertex 0 35 60.6218
    endloop
  endfacet
  facet normal 0 0.866025 -0.5
    outer loop
      vertex 200 35 60.6218
      vertex 190 90 155.885
      vertex 200 90 155.885
    endloop
  endfacet
  facet normal 0 0.866025 -0.5
    outer loop
      vertex 190 90 155.885
      vertex 200 35 60.6218
      vertex 190 35 60.6218
    endloop
  endfacet
  facet normal 0 0.866026 -0.5
    outer loop
      vertex 200 90 155.885
      vertex 200 95 164.545
      vertex 236.5 95 164.545
    endloop
  endfacet
  facet normal 0 0.866026 -0.5
    outer loop
      vertex 200 95 164.545
      vertex 200 90 155.885
      vertex 190 95 164.545
    endloop
  endfacet
  facet normal 0 0.866026 -0.5
    outer loop
      vertex 190 95 164.545
      vertex 190 90 155.885
      vertex 10 95 164.545
    endloop
  endfacet
  facet normal 0 0.866026 -0.5
    outer loop
      vertex 10 90 155.885
      vertex 10 95 164.545
      vertex 190 90 155.885
    endloop
  endfacet
  facet normal 0 0.866026 -0.5
    outer loop
      vertex 200 90 155.885
      vertex 236.5 95 164.545
      vertex 236.5 90 155.885
    endloop
  endfacet
  facet normal 0 0.866026 -0.5
    outer loop
      vertex 190 95 164.545
      vertex 200 90 155.885
      vertex 190 90 155.885
    endloop
  endfacet
  facet normal 0 0.866026 -0.5
    outer loop
      vertex 10 95 164.545
      vertex 10 90 155.885
      vertex 0 95 164.545
    endloop
  endfacet
  facet normal 0 0.866026 -0.5
    outer loop
      vertex 0 90 155.885
      vertex 0 95 164.545
      vertex 10 90 155.885
    endloop
  endfacet
  facet normal 0 0.866026 -0.5
    outer loop
      vertex 0 95 164.545
      vertex 0 90 155.885
      vertex -32.5 95 164.545
    endloop
  endfacet
  facet normal 0 0.866026 -0.5
    outer loop
      vertex -32.5 95 164.545
      vertex 0 90 155.885
      vertex -32.5 90 155.885
    endloop
  endfacet
  facet normal 0 0.866025 -0.5
    outer loop
      vertex 200 95 164.545
      vertex 190 110 190.526
      vertex 200 110 190.526
    endloop
  endfacet
  facet normal 0 0.866025 -0.5
    outer loop
      vertex 190 110 190.526
      vertex 200 95 164.545
      vertex 190 95 164.545
    endloop
  endfacet
  facet normal 0 0.866025 -0.5
    outer loop
      vertex 10 95 164.545
      vertex 0 110 190.526
      vertex 10 110 190.526
    endloop
  endfacet
  facet normal 0 0.866025 -0.5
    outer loop
      vertex 0 110 190.526
      vertex 10 95 164.545
      vertex 0 95 164.545
    endloop
  endfacet
  facet normal -5.86877e-009 -0.5 -0.866025
    outer loop
      vertex 232.5 8.34937 64.4615
      vertex 200 21.3397 56.9615
      vertex 232.5 30 51.9615
    endloop
  endfacet
  facet normal 0 -0.5 -0.866025
    outer loop
      vertex 232.5 8.34937 64.4615
      vertex 190 21.3397 56.9615
      vertex 200 21.3397 56.9615
    endloop
  endfacet
  facet normal -0 -0.5 -0.866025
    outer loop
      vertex 190 21.3397 56.9615
      vertex 10 21.3397 56.9615
      vertex 190 30 51.9615
    endloop
  endfacet
  facet normal 0 -0.5 -0.866025
    outer loop
      vertex 232.5 8.34937 64.4615
      vertex 10 21.3397 56.9615
      vertex 190 21.3397 56.9615
    endloop
  endfacet
  facet normal 0 -0.5 -0.866025
    outer loop
      vertex -32.5 8.34937 64.4615
      vertex 10 21.3397 56.9615
      vertex 232.5 8.34937 64.4615
    endloop
  endfacet
  facet normal -0 -0.5 -0.866025
    outer loop
      vertex 10 21.3397 56.9615
      vertex -32.5 8.34937 64.4615
      vertex 0 21.3397 56.9615
    endloop
  endfacet
  facet normal 5.86877e-009 -0.5 -0.866025
    outer loop
      vertex -32.5 30 51.9615
      vertex 0 21.3397 56.9615
      vertex -32.5 8.34937 64.4615
    endloop
  endfacet
  facet normal 0 -0.5 -0.866025
    outer loop
      vertex 0 21.3397 56.9615
      vertex -32.5 30 51.9615
      vertex 0 30 51.9615
    endloop
  endfacet
  facet normal -0 -0.5 -0.866025
    outer loop
      vertex 232.5 30 51.9615
      vertex 200 21.3397 56.9615
      vertex 200 30 51.9615
    endloop
  endfacet
  facet normal -0 -0.5 -0.866025
    outer loop
      vertex 190 30 51.9615
      vertex 10 21.3397 56.9615
      vertex 10 30 51.9615
    endloop
  endfacet
  facet normal 0 0.5 0.866025
    outer loop
      vertex 0 35 60.6218
      vertex -30.5 26.3397 65.6218
      vertex 0 26.3397 65.6218
    endloop
  endfacet
  facet normal -1.08645e-006 0.5 0.866025
    outer loop
      vertex -32.5 13.3494 73.1218
      vertex -30.5 26.3397 65.6218
      vertex -32.5 35 60.6218
    endloop
  endfacet
  facet normal -0 0.5 0.866025
    outer loop
      vertex -32.5 35 60.6218
      vertex -30.5 26.3397 65.6218
      vertex 0 35 60.6218
    endloop
  endfacet
  facet normal 1.08645e-006 0.5 0.866025
    outer loop
      vertex 232.5 35 60.6218
      vertex 230.5 26.3397 65.6218
      vertex 232.5 13.3494 73.1218
    endloop
  endfacet
  facet normal -0 0.5 0.866025
    outer loop
      vertex 200 35 60.6218
      vertex 230.5 26.3397 65.6218
      vertex 232.5 35 60.6218
    endloop
  endfacet
  facet normal 0 0.5 0.866025
    outer loop
      vertex 230.5 26.3397 65.6218
      vertex 200 35 60.6218
      vertex 200 26.3397 65.6218
    endloop
  endfacet
  facet normal -4.76837e-007 0.5 0.866025
    outer loop
      vertex 230.5 17.6795 70.6218
      vertex 232.5 13.3494 73.1218
      vertex 230.5 26.3397 65.6218
    endloop
  endfacet
  facet normal -0 0.5 0.866025
    outer loop
      vertex -30.5 17.6795 70.6218
      vertex 232.5 13.3494 73.1218
      vertex 230.5 17.6795 70.6218
    endloop
  endfacet
  facet normal 0 0.5 0.866025
    outer loop
      vertex -30.5 17.6795 70.6218
      vertex -32.5 13.3494 73.1218
      vertex 232.5 13.3494 73.1218
    endloop
  endfacet
  facet normal 4.76837e-007 0.5 0.866025
    outer loop
      vertex -30.5 26.3397 65.6218
      vertex -32.5 13.3494 73.1218
      vertex -30.5 17.6795 70.6218
    endloop
  endfacet
  facet normal -0 0.5 0.866025
    outer loop
      vertex 10 35 60.6218
      vertex 190 26.3397 65.6218
      vertex 190 35 60.6218
    endloop
  endfacet
  facet normal 0 0.5 0.866025
    outer loop
      vertex 190 26.3397 65.6218
      vertex 10 35 60.6218
      vertex 10 26.3397 65.6218
    endloop
  endfacet
  facet normal 1 0 0
    outer loop
      vertex -30.5 17.6795 70.6218
      vertex -30.5 22.3397 58.6936
      vertex -30.5 26.3397 65.6218
    endloop
  endfacet
  facet normal 1 0 0
    outer loop
      vertex -30.5 22.3397 58.6936
      vertex -30.5 17.6795 70.6218
      vertex -30.5 13.6795 63.6936
    endloop
  endfacet
  facet normal 0 0.866025 -0.5
    outer loop
      vertex 230.5 13.6795 63.6936
      vertex -30.5 17.6795 70.6218
      vertex 230.5 17.6795 70.6218
    endloop
  endfacet
  facet normal 0 0.866025 -0.5
    outer loop
      vertex -30.5 17.6795 70.6218
      vertex 230.5 13.6795 63.6936
      vertex -30.5 13.6795 63.6936
    endloop
  endfacet
  facet normal -1 0 0
    outer loop
      vertex 230.5 22.3397 58.6936
      vertex 230.5 17.6795 70.6218
      vertex 230.5 26.3397 65.6218
    endloop
  endfacet
  facet normal -1 0 -0
    outer loop
      vertex 230.5 17.6795 70.6218
      vertex 230.5 22.3397 58.6936
      vertex 230.5 13.6795 63.6936
    endloop
  endfacet
  facet normal 0 -0.866026 0.5
    outer loop
      vertex -30.5 81.3397 160.885
      vertex 0 86.3397 169.545
      vertex -30.5 86.3397 169.545
    endloop
  endfacet
  facet normal 0 -0.866026 0.5
    outer loop
      vertex 0 86.3397 169.545
      vertex -30.5 81.3397 160.885
      vertex 0 81.3397 160.885
    endloop
  endfacet
  facet normal 0 -0.866026 0.5
    outer loop
      vertex 200 81.3397 160.885
      vertex 234.5 86.3397 169.545
      vertex 200 86.3397 169.545
    endloop
  endfacet
  facet normal 0 -0.866026 0.5
    outer loop
      vertex 234.5 86.3397 169.545
      vertex 200 81.3397 160.885
      vertex 234.5 81.3397 160.885
    endloop
  endfacet
  facet normal 0 -0.866025 0.5
    outer loop
      vertex -30.5 22.3397 58.6936
      vertex 0 26.3397 65.6218
      vertex -30.5 26.3397 65.6218
    endloop
  endfacet
  facet normal 0 -0.866025 0.5
    outer loop
      vertex 0 26.3397 65.6218
      vertex -30.5 22.3397 58.6936
      vertex 0 22.3397 58.6936
    endloop
  endfacet
  facet normal 0 -0.866025 0.5
    outer loop
      vertex 200 22.3397 58.6936
      vertex 230.5 26.3397 65.6218
      vertex 200 26.3397 65.6218
    endloop
  endfacet
  facet normal 0 -0.866025 0.5
    outer loop
      vertex 230.5 26.3397 65.6218
      vertex 200 22.3397 58.6936
      vertex 230.5 22.3397 58.6936
    endloop
  endfacet
  facet normal 0 -0.866025 0.5
    outer loop
      vertex 190 -8.66025 5
      vertex 200 21.3397 56.9615
      vertex 190 21.3397 56.9615
    endloop
  endfacet
  facet normal 0 -0.866025 0.5
    outer loop
      vertex 200 21.3397 56.9615
      vertex 190 -8.66025 5
      vertex 200 -8.66025 5
    endloop
  endfacet
  facet normal 0 -0.866025 0.5
    outer loop
      vertex 190 86.3397 169.545
      vertex 200 101.34 195.526
      vertex 190 101.34 195.526
    endloop
  endfacet
  facet normal 0 -0.866025 0.5
    outer loop
      vertex 190 86.3397 169.545
      vertex 200 86.3397 169.545
      vertex 200 101.34 195.526
    endloop
  endfacet
  facet normal 0 -0.866026 0.5
    outer loop
      vertex 190 81.3397 160.885
      vertex 200 86.3397 169.545
      vertex 190 86.3397 169.545
    endloop
  endfacet
  facet normal 0 -0.866026 0.5
    outer loop
      vertex 190 81.3397 160.885
      vertex 200 81.3397 160.885
      vertex 200 86.3397 169.545
    endloop
  endfacet
  facet normal 0 -0.866025 0.5
    outer loop
      vertex 190 26.3397 65.6218
      vertex 200 81.3397 160.885
      vertex 190 81.3397 160.885
    endloop
  endfacet
  facet normal 0 -0.866025 0.5
    outer loop
      vertex 190 26.3397 65.6218
      vertex 200 26.3397 65.6218
      vertex 200 81.3397 160.885
    endloop
  endfacet
  facet normal 0 -0.866025 0.5
    outer loop
      vertex 190 22.3397 58.6936
      vertex 200 26.3397 65.6218
      vertex 190 26.3397 65.6218
    endloop
  endfacet
  facet normal 0 -0.866025 0.5
    outer loop
      vertex 200 26.3397 65.6218
      vertex 190 22.3397 58.6936
      vertex 200 22.3397 58.6936
    endloop
  endfacet
  facet normal 0 -0.866025 0.5
    outer loop
      vertex 0 -8.66025 5
      vertex 10 21.3397 56.9615
      vertex 0 21.3397 56.9615
    endloop
  endfacet
  facet normal 0 -0.866025 0.5
    outer loop
      vertex 10 -8.66025 5
      vertex 10 21.3397 56.9615
      vertex 0 -8.66025 5
    endloop
  endfacet
  facet normal 0 -0.866025 0.5
    outer loop
      vertex 0 86.3397 169.545
      vertex 10 101.34 195.526
      vertex 0 101.34 195.526
    endloop
  endfacet
  facet normal 0 -0.866025 0.5
    outer loop
      vertex 0 86.3397 169.545
      vertex 10 86.3397 169.545
      vertex 10 101.34 195.526
    endloop
  endfacet
  facet normal 0 -0.866026 0.5
    outer loop
      vertex 0 81.3397 160.885
      vertex 10 86.3397 169.545
      vertex 0 86.3397 169.545
    endloop
  endfacet
  facet normal 0 -0.866026 0.5
    outer loop
      vertex 0 81.3397 160.885
      vertex 10 81.3397 160.885
      vertex 10 86.3397 169.545
    endloop
  endfacet
  facet normal 0 -0.866025 0.5
    outer loop
      vertex 0 26.3397 65.6218
      vertex 10 81.3397 160.885
      vertex 0 81.3397 160.885
    endloop
  endfacet
  facet normal 0 -0.866025 0.5
    outer loop
      vertex 0 26.3397 65.6218
      vertex 10 26.3397 65.6218
      vertex 10 81.3397 160.885
    endloop
  endfacet
  facet normal 0 -0.866025 0.5
    outer loop
      vertex 0 22.3397 58.6936
      vertex 10 26.3397 65.6218
      vertex 0 26.3397 65.6218
    endloop
  endfacet
  facet normal 0 -0.866025 0.5
    outer loop
      vertex 10 26.3397 65.6218
      vertex 0 22.3397 58.6936
      vertex 10 22.3397 58.6936
    endloop
  endfacet
  facet normal 0 -0.866025 0.5
    outer loop
      vertex 10 22.3397 58.6936
      vertex 190 26.3397 65.6218
      vertex 10 26.3397 65.6218
    endloop
  endfacet
  facet normal 0 -0.866025 0.5
    outer loop
      vertex 190 26.3397 65.6218
      vertex 10 22.3397 58.6936
      vertex 190 22.3397 58.6936
    endloop
  endfacet
  facet normal 0 -0.866026 0.5
    outer loop
      vertex 10 81.3397 160.885
      vertex 190 86.3397 169.545
      vertex 10 86.3397 169.545
    endloop
  endfacet
  facet normal 0 -0.866026 0.5
    outer loop
      vertex 190 86.3397 169.545
      vertex 10 81.3397 160.885
      vertex 190 81.3397 160.885
    endloop
  endfacet
  facet normal -0 0.5 0.866025
    outer loop
      vertex 200 22.3397 58.6936
      vertex 230.5 13.6795 63.6936
      vertex 230.5 22.3397 58.6936
    endloop
  endfacet
  facet normal -0 0.5 0.866025
    outer loop
      vertex 190 22.3397 58.6936
      vertex 230.5 13.6795 63.6936
      vertex 200 22.3397 58.6936
    endloop
  endfacet
  facet normal -0 0.5 0.866025
    outer loop
      vertex 10 22.3397 58.6936
      vertex 230.5 13.6795 63.6936
      vertex 190 22.3397 58.6936
    endloop
  endfacet
  facet normal 0 0.5 0.866025
    outer loop
      vertex -30.5 13.6795 63.6936
      vertex 10 22.3397 58.6936
      vertex 0 22.3397 58.6936
    endloop
  endfacet
  facet normal 0 0.5 0.866025
    outer loop
      vertex -30.5 13.6795 63.6936
      vertex 0 22.3397 58.6936
      vertex -30.5 22.3397 58.6936
    endloop
  endfacet
  facet normal 0 0.5 0.866025
    outer loop
      vertex 10 22.3397 58.6936
      vertex -30.5 13.6795 63.6936
      vertex 230.5 13.6795 63.6936
    endloop
  endfacet
  facet normal 1 0 0
    outer loop
      vertex -30.5 77.6795 174.545
      vertex -30.5 81.3397 160.885
      vertex -30.5 86.3397 169.545
    endloop
  endfacet
  facet normal 1 0 0
    outer loop
      vertex -30.5 81.3397 160.885
      vertex -30.5 77.6795 174.545
      vertex -30.5 72.6795 165.885
    endloop
  endfacet
  facet normal 0 0.866026 -0.5
    outer loop
      vertex -27.5 72.6795 165.885
      vertex -30.5 77.6795 174.545
      vertex -27.5 77.6795 174.545
    endloop
  endfacet
  facet normal 0 0.866026 -0.5
    outer loop
      vertex -30.5 77.6795 174.545
      vertex -27.5 72.6795 165.885
      vertex -30.5 72.6795 165.885
    endloop
  endfacet
  facet normal 0 0.866026 -0.5
    outer loop
      vertex 234.5 72.6795 165.885
      vertex 231.5 77.6795 174.545
      vertex 234.5 77.6795 174.545
    endloop
  endfacet
  facet normal 0 0.866026 -0.5
    outer loop
      vertex 231.5 77.6795 174.545
      vertex 234.5 72.6795 165.885
      vertex 231.5 72.6795 165.885
    endloop
  endfacet
  facet normal -1 0 0
    outer loop
      vertex 234.5 81.3397 160.885
      vertex 234.5 77.6795 174.545
      vertex 234.5 86.3397 169.545
    endloop
  endfacet
  facet normal -1 0 -0
    outer loop
      vertex 234.5 77.6795 174.545
      vertex 234.5 81.3397 160.885
      vertex 234.5 72.6795 165.885
    endloop
  endfacet
  facet normal 1 0 0
    outer loop
      vertex -27.5 75.9474 175.545
      vertex -27.5 72.6795 165.885
      vertex -27.5 77.6795 174.545
    endloop
  endfacet
  facet normal 1 0 -0
    outer loop
      vertex -27.5 72.6795 165.885
      vertex -27.5 75.9474 175.545
      vertex -27.5 70.9474 166.885
    endloop
  endfacet
  facet normal -1 0 0
    outer loop
      vertex 231.5 72.6795 165.885
      vertex 231.5 75.9474 175.545
      vertex 231.5 77.6795 174.545
    endloop
  endfacet
  facet normal -1 0 0
    outer loop
      vertex 231.5 75.9474 175.545
      vertex 231.5 72.6795 165.885
      vertex 231.5 70.9474 166.885
    endloop
  endfacet
  facet normal -1 0 0
    outer loop
      vertex -32.5 90 155.885
      vertex -32.5 75.9474 175.545
      vertex -32.5 95 164.545
    endloop
  endfacet
  facet normal -1 0 -0
    outer loop
      vertex -32.5 75.9474 175.545
      vertex -32.5 90 155.885
      vertex -32.5 70.9474 166.885
    endloop
  endfacet
  facet normal 0 -0.866026 0.5
    outer loop
      vertex -32.5 70.9474 166.885
      vertex -27.5 75.9474 175.545
      vertex -32.5 75.9474 175.545
    endloop
  endfacet
  facet normal 0 -0.866026 0.5
    outer loop
      vertex -27.5 75.9474 175.545
      vertex -32.5 70.9474 166.885
      vertex -27.5 70.9474 166.885
    endloop
  endfacet
  facet normal 0 -0.866026 0.5
    outer loop
      vertex 231.5 70.9474 166.885
      vertex 236.5 75.9474 175.545
      vertex 231.5 75.9474 175.545
    endloop
  endfacet
  facet normal 0 -0.866026 0.5
    outer loop
      vertex 236.5 75.9474 175.545
      vertex 231.5 70.9474 166.885
      vertex 236.5 70.9474 166.885
    endloop
  endfacet
  facet normal 1 0 0
    outer loop
      vertex 236.5 75.9474 175.545
      vertex 236.5 90 155.885
      vertex 236.5 95 164.545
    endloop
  endfacet
  facet normal 1 0 0
    outer loop
      vertex 236.5 90 155.885
      vertex 236.5 75.9474 175.545
      vertex 236.5 70.9474 166.885
    endloop
  endfacet
  facet normal 0 -0.500001 -0.866025
    outer loop
      vertex -27.5 70.9474 166.885
      vertex -30.5 72.6795 165.885
      vertex -27.5 72.6795 165.885
    endloop
  endfacet
  facet normal -7.62939e-007 -0.5 -0.866025
    outer loop
      vertex -30.5 72.6795 165.885
      vertex -32.5 70.9474 166.885
      vertex -30.5 81.3397 160.885
    endloop
  endfacet
  facet normal 0 -0.500001 -0.866025
    outer loop
      vertex -32.5 70.9474 166.885
      vertex -30.5 72.6795 165.885
      vertex -27.5 70.9474 166.885
    endloop
  endfacet
  facet normal 0 -0.5 -0.866025
    outer loop
      vertex -30.5 81.3397 160.885
      vertex 0 90 155.885
      vertex 0 81.3397 160.885
    endloop
  endfacet
  facet normal 0 -0.5 -0.866025
    outer loop
      vertex -30.5 81.3397 160.885
      vertex -32.5 90 155.885
      vertex 0 90 155.885
    endloop
  endfacet
  facet normal -3.46791e-007 -0.5 -0.866025
    outer loop
      vertex -32.5 90 155.885
      vertex -30.5 81.3397 160.885
      vertex -32.5 70.9474 166.885
    endloop
  endfacet
  facet normal 7.62939e-007 -0.5 -0.866025
    outer loop
      vertex 234.5 81.3397 160.885
      vertex 236.5 70.9474 166.885
      vertex 234.5 72.6795 165.885
    endloop
  endfacet
  facet normal 0 -0.500001 -0.866025
    outer loop
      vertex 231.5 70.9474 166.885
      vertex 234.5 72.6795 165.885
      vertex 236.5 70.9474 166.885
    endloop
  endfacet
  facet normal -0 -0.500001 -0.866025
    outer loop
      vertex 234.5 72.6795 165.885
      vertex 231.5 70.9474 166.885
      vertex 231.5 72.6795 165.885
    endloop
  endfacet
  facet normal 3.46791e-007 -0.5 -0.866025
    outer loop
      vertex 236.5 70.9474 166.885
      vertex 234.5 81.3397 160.885
      vertex 236.5 90 155.885
    endloop
  endfacet
  facet normal 0 -0.5 -0.866025
    outer loop
      vertex 200 90 155.885
      vertex 234.5 81.3397 160.885
      vertex 200 81.3397 160.885
    endloop
  endfacet
  facet normal 0 -0.5 -0.866025
    outer loop
      vertex 234.5 81.3397 160.885
      vertex 200 90 155.885
      vertex 236.5 90 155.885
    endloop
  endfacet
  facet normal 0 -0.5 -0.866025
    outer loop
      vertex 10 81.3397 160.885
      vertex 190 90 155.885
      vertex 190 81.3397 160.885
    endloop
  endfacet
  facet normal -0 -0.5 -0.866025
    outer loop
      vertex 190 90 155.885
      vertex 10 81.3397 160.885
      vertex 10 90 155.885
    endloop
  endfacet
  facet normal -3.46791e-007 0.5 0.866025
    outer loop
      vertex 236.5 95 164.545
      vertex 234.5 86.3397 169.545
      vertex 236.5 75.9474 175.545
    endloop
  endfacet
  facet normal -0 0.5 0.866025
    outer loop
      vertex 200 95 164.545
      vertex 234.5 86.3397 169.545
      vertex 236.5 95 164.545
    endloop
  endfacet
  facet normal 0 0.5 0.866025
    outer loop
      vertex 234.5 86.3397 169.545
      vertex 200 95 164.545
      vertex 200 86.3397 169.545
    endloop
  endfacet
  facet normal -7.62939e-007 0.5 0.866025
    outer loop
      vertex 234.5 77.6795 174.545
      vertex 236.5 75.9474 175.545
      vertex 234.5 86.3397 169.545
    endloop
  endfacet
  facet normal 0 0.500001 0.866025
    outer loop
      vertex 231.5 75.9474 175.545
      vertex 234.5 77.6795 174.545
      vertex 231.5 77.6795 174.545
    endloop
  endfacet
  facet normal 0 0.500001 0.866025
    outer loop
      vertex 234.5 77.6795 174.545
      vertex 231.5 75.9474 175.545
      vertex 236.5 75.9474 175.545
    endloop
  endfacet
  facet normal 0 0.5 0.866025
    outer loop
      vertex 0 95 164.545
      vertex -30.5 86.3397 169.545
      vertex 0 86.3397 169.545
    endloop
  endfacet
  facet normal 3.46791e-007 0.5 0.866025
    outer loop
      vertex -32.5 75.9474 175.545
      vertex -30.5 86.3397 169.545
      vertex -32.5 95 164.545
    endloop
  endfacet
  facet normal -0 0.5 0.866025
    outer loop
      vertex -32.5 95 164.545
      vertex -30.5 86.3397 169.545
      vertex 0 95 164.545
    endloop
  endfacet
  facet normal -0 0.500001 0.866025
    outer loop
      vertex -30.5 77.6795 174.545
      vertex -27.5 75.9474 175.545
      vertex -27.5 77.6795 174.545
    endloop
  endfacet
  facet normal 0 0.500001 0.866025
    outer loop
      vertex -30.5 77.6795 174.545
      vertex -32.5 75.9474 175.545
      vertex -27.5 75.9474 175.545
    endloop
  endfacet
  facet normal 7.62939e-007 0.5 0.866025
    outer loop
      vertex -30.5 86.3397 169.545
      vertex -32.5 75.9474 175.545
      vertex -30.5 77.6795 174.545
    endloop
  endfacet
  facet normal -0 0.5 0.866025
    outer loop
      vertex 10 95 164.545
      vertex 190 86.3397 169.545
      vertex 190 95 164.545
    endloop
  endfacet
  facet normal 0 0.5 0.866025
    outer loop
      vertex 190 86.3397 169.545
      vertex 10 95 164.545
      vertex 10 86.3397 169.545
    endloop
  endfacet
  facet normal -1 0 0
    outer loop
      vertex 0 9.51056 -3.09017
      vertex 0 9.94522 1.04528
      vertex 0 9.94522 -1.04529
    endloop
  endfacet
  facet normal -1 0 0
    outer loop
      vertex 0 9.51056 -3.09017
      vertex 0 9.51056 3.09017
      vertex 0 9.94522 1.04528
    endloop
  endfacet
  facet normal -1 0 0
    outer loop
      vertex 0 8.66025 -5
      vertex 0 9.51056 3.09017
      vertex 0 9.51056 -3.09017
    endloop
  endfacet
  facet normal -1 0 0
    outer loop
      vertex 0 8.66025 -5
      vertex 0 8.66025 5
      vertex 0 9.51056 3.09017
    endloop
  endfacet
  facet normal -1 0 0
    outer loop
      vertex 0 4.97261 8.61281
      vertex 0 8.66025 5
      vertex 0 8.66025 -5
    endloop
  endfacet
  facet normal -1 0 0
    outer loop
      vertex 0 4.97261 8.61281
      vertex 0 8.66025 -5
      vertex 0 7.43145 -6.69131
    endloop
  endfacet
  facet normal -1 0 0
    outer loop
      vertex 0 4.97261 8.61281
      vertex 0 7.43145 -6.69131
      vertex 0 5.87785 -8.09017
    endloop
  endfacet
  facet normal -1 0 0
    outer loop
      vertex 0 8.66025 5
      vertex 0 4.97261 8.61281
      vertex 0 7.43145 6.69131
    endloop
  endfacet
  facet normal -1 0 0
    outer loop
      vertex 0 7.43145 6.69131
      vertex 0 4.97261 8.61281
      vertex 0 5.87785 8.09017
    endloop
  endfacet
  facet normal -1 0 -0
    outer loop
      vertex 0 4.97261 8.61281
      vertex 0 5.87785 -8.09017
      vertex 0 4.06737 -9.13545
    endloop
  endfacet
  facet normal -1 0 0
    outer loop
      vertex 0 4.97261 8.61281
      vertex 0 21.3397 56.9615
      vertex 0 30 51.9615
    endloop
  endfacet
  facet normal -1 0 0
    outer loop
      vertex 0 2.07912 -9.78148
      vertex 0 4.97261 8.61281
      vertex 0 4.06737 -9.13545
    endloop
  endfacet
  facet normal -1 0 0
    outer loop
      vertex 0 2.56532e-007 -10
      vertex 0 4.97261 8.61281
      vertex 0 2.07912 -9.78148
    endloop
  endfacet
  facet normal -1 0 0
    outer loop
      vertex 0 -2.07912 -9.78148
      vertex 0 4.97261 8.61281
      vertex 0 2.56532e-007 -10
    endloop
  endfacet
  facet normal -1 0 0
    outer loop
      vertex 0 -8.66025 5
      vertex 0 4.97261 8.61281
      vertex 0 -2.07912 -9.78148
    endloop
  endfacet
  facet normal -1 0 0
    outer loop
      vertex 0 -8.66025 5
      vertex 0 -2.07912 -9.78148
      vertex 0 -4.06737 -9.13545
    endloop
  endfacet
  facet normal -1 0 0
    outer loop
      vertex 0 -8.66025 5
      vertex 0 -4.06737 -9.13545
      vertex 0 -5.87785 -8.09017
    endloop
  endfacet
  facet normal -1 0 0
    outer loop
      vertex 0 -8.66025 5
      vertex 0 -5.87785 -8.09017
      vertex 0 -7.43145 -6.69131
    endloop
  endfacet
  facet normal -1 0 0
    outer loop
      vertex 0 -8.66025 5
      vertex 0 -7.43145 -6.69131
      vertex 0 -8.66025 -5
    endloop
  endfacet
  facet normal -1 -0 0
    outer loop
      vertex 0 4.97261 8.61281
      vertex 0 -8.66025 5
      vertex 0 21.3397 56.9615
    endloop
  endfacet
  facet normal -1 0 0
    outer loop
      vertex 0 -9.51056 -3.09017
      vertex 0 -8.66025 5
      vertex 0 -8.66025 -5
    endloop
  endfacet
  facet normal -1 0 0
    outer loop
      vertex 0 -9.51056 -3.09017
      vertex 0 -9.51056 3.09017
      vertex 0 -8.66025 5
    endloop
  endfacet
  facet normal -1 0 0
    outer loop
      vertex 0 -9.51056 -3.09017
      vertex 0 -9.94522 1.04529
      vertex 0 -9.51056 3.09017
    endloop
  endfacet
  facet normal -1 0 -0
    outer loop
      vertex 0 -9.94522 1.04529
      vertex 0 -9.51056 -3.09017
      vertex 0 -9.94522 -1.04528
    endloop
  endfacet
  facet normal -1 0 0
    outer loop
      vertex 0 95 164.545
      vertex 0 101.34 195.526
      vertex 0 110 190.526
    endloop
  endfacet
  facet normal -1 0 0
    outer loop
      vertex 0 101.34 195.526
      vertex 0 95 164.545
      vertex 0 86.3397 169.545
    endloop
  endfacet
  facet normal -1 0 0
    outer loop
      vertex 0 35 60.6218
      vertex 0 81.3397 160.885
      vertex 0 90 155.885
    endloop
  endfacet
  facet normal -1 0 0
    outer loop
      vertex 0 81.3397 160.885
      vertex 0 35 60.6218
      vertex 0 26.3397 65.6218
    endloop
  endfacet
  facet normal 1 0 0
    outer loop
      vertex 10 21.3397 56.9615
      vertex 10 4.97261 8.61281
      vertex 10 30 51.9615
    endloop
  endfacet
  facet normal 1 0 0
    outer loop
      vertex 10 5.87785 -8.09017
      vertex 10 -2.67617 1.54508
      vertex 10 4.06737 -9.13545
    endloop
  endfacet
  facet normal 1 0 0
    outer loop
      vertex 10 4.06737 -9.13545
      vertex 10 -2.67617 1.54508
      vertex 10 2.07912 -9.78148
    endloop
  endfacet
  facet normal 1 0 0
    outer loop
      vertex 10 2.07912 -9.78148
      vertex 10 -2.67617 1.54508
      vertex 10 -5.69374e-007 -10
    endloop
  endfacet
  facet normal 1 0 0
    outer loop
      vertex 10 -8.66025 5
      vertex 10 4.97261 8.61281
      vertex 10 21.3397 56.9615
    endloop
  endfacet
  facet normal 1 0 0
    outer loop
      vertex 10 -5.69374e-007 -10
      vertex 10 -2.67617 1.54508
      vertex 10 -2.07912 -9.78148
    endloop
  endfacet
  facet normal 1 0 0
    outer loop
      vertex 10 4.97261 8.61281
      vertex 10 -8.66025 5
      vertex 10 -2.67617 1.54508
    endloop
  endfacet
  facet normal 1 -0 0
    outer loop
      vertex 10 -2.67617 1.54508
      vertex 10 9.94522 1.04528
      vertex 10 9.51056 3.09017
    endloop
  endfacet
  facet normal 1 0 0
    outer loop
      vertex 10 9.94522 1.04528
      vertex 10 -2.67617 1.54508
      vertex 10 9.94522 -1.04529
    endloop
  endfacet
  facet normal 1 0 0
    outer loop
      vertex 10 9.94522 -1.04529
      vertex 10 -2.67617 1.54508
      vertex 10 9.51056 -3.09017
    endloop
  endfacet
  facet normal 1 0 0
    outer loop
      vertex 10 -2.67617 1.54508
      vertex 10 9.51056 3.09017
      vertex 10 8.66025 5
    endloop
  endfacet
  facet normal 1 0 0
    outer loop
      vertex 10 5.87785 8.09017
      vertex 10 -2.67617 1.54508
      vertex 10 7.43145 6.69131
    endloop
  endfacet
  facet normal 1 0 0
    outer loop
      vertex 10 7.43145 6.69131
      vertex 10 -2.67617 1.54508
      vertex 10 8.66025 5
    endloop
  endfacet
  facet normal 1 0 0
    outer loop
      vertex 10 9.51056 -3.09017
      vertex 10 -2.67617 1.54508
      vertex 10 8.66025 -5
    endloop
  endfacet
  facet normal 1 0 0
    outer loop
      vertex 10 -2.67617 1.54508
      vertex 10 5.87785 8.09017
      vertex 10 4.97261 8.61281
    endloop
  endfacet
  facet normal 1 0 0
    outer loop
      vertex 10 8.66025 -5
      vertex 10 -2.67617 1.54508
      vertex 10 7.43145 -6.69131
    endloop
  endfacet
  facet normal 1 0 0
    outer loop
      vertex 10 7.43145 -6.69131
      vertex 10 -2.67617 1.54508
      vertex 10 5.87785 -8.09017
    endloop
  endfacet
  facet normal 1 0 0
    outer loop
      vertex 10 -2.67617 1.54508
      vertex 10 -4.06737 -9.13545
      vertex 10 -2.07912 -9.78148
    endloop
  endfacet
  facet normal 1 0 0
    outer loop
      vertex 10 -2.67617 1.54508
      vertex 10 -5.87785 -8.09017
      vertex 10 -4.06737 -9.13545
    endloop
  endfacet
  facet normal 1 0 -0
    outer loop
      vertex 10 -5.87785 -8.09017
      vertex 10 -2.67617 1.54508
      vertex 10 -7.43145 -6.69131
    endloop
  endfacet
  facet normal 1 0 0
    outer loop
      vertex 10 101.34 195.526
      vertex 10 95 164.545
      vertex 10 110 190.526
    endloop
  endfacet
  facet normal 1 0 -0
    outer loop
      vertex 10 95 164.545
      vertex 10 101.34 195.526
      vertex 10 86.3397 169.545
    endloop
  endfacet
  facet normal 1 0 0
    outer loop
      vertex 10 81.3397 160.885
      vertex 10 35 60.6218
      vertex 10 90 155.885
    endloop
  endfacet
  facet normal 1 0 -0
    outer loop
      vertex 10 35 60.6218
      vertex 10 81.3397 160.885
      vertex 10 26.3397 65.6218
    endloop
  endfacet
  facet normal -0 0.5 0.866025
    outer loop
      vertex 0 110 190.526
      vertex 10 101.34 195.526
      vertex 10 110 190.526
    endloop
  endfacet
  facet normal 0 0.5 0.866025
    outer loop
      vertex 10 101.34 195.526
      vertex 0 110 190.526
      vertex 0 101.34 195.526
    endloop
  endfacet
  facet normal 0 0.913546 -0.406736
    outer loop
      vertex 10 9.51056 -3.09017
      vertex 0 8.66025 -5
      vertex 0 9.51056 -3.09017
    endloop
  endfacet
  facet normal 1.06517e-007 0.913546 -0.406736
    outer loop
      vertex 10 8.66025 -5
      vertex 0 8.66025 -5
      vertex 10 9.51056 -3.09017
    endloop
  endfacet
  facet normal -0 0.5 0.866025
    outer loop
      vertex 0 5.87785 8.09017
      vertex 10 4.97261 8.61281
      vertex 10 5.87785 8.09017
    endloop
  endfacet
  facet normal 0 0.5 0.866025
    outer loop
      vertex 10 4.97261 8.61281
      vertex 0 5.87785 8.09017
      vertex 0 4.97261 8.61281
    endloop
  endfacet
  facet normal 0 -0.66913 -0.743145
    outer loop
      vertex 0 -7.43145 -6.69131
      vertex 10 -5.87785 -8.09017
      vertex 10 -7.43145 -6.69131
    endloop
  endfacet
  facet normal -0 -0.66913 -0.743145
    outer loop
      vertex 10 -5.87785 -8.09017
      vertex 0 -7.43145 -6.69131
      vertex 0 -5.87785 -8.09017
    endloop
  endfacet
  facet normal -0 0.913546 0.406736
    outer loop
      vertex 0 9.51056 3.09017
      vertex 0 8.66025 5
      vertex 10 9.51056 3.09017
    endloop
  endfacet
  facet normal 0 0.809017 0.587785
    outer loop
      vertex 0 8.66025 5
      vertex 0 7.43145 6.69131
      vertex 10 7.43145 6.69131
    endloop
  endfacet
  facet normal -0 0.66913 0.743145
    outer loop
      vertex 0 7.43145 6.69131
      vertex 10 5.87785 8.09017
      vertex 10 7.43145 6.69131
    endloop
  endfacet
  facet normal 0 0.66913 0.743145
    outer loop
      vertex 10 5.87785 8.09017
      vertex 0 7.43145 6.69131
      vertex 0 5.87785 8.09017
    endloop
  endfacet
  facet normal 1 -1.19526e-007 6.90085e-008
    outer loop
      vertex 10 -2.67617 1.54508
      vertex 10 -8.66025 5
      vertex 10 -7.43145 -6.69131
    endloop
  endfacet
  facet normal 0 0.309017 -0.951057
    outer loop
      vertex 0 2.07912 -9.78148
      vertex 10 4.06737 -9.13545
      vertex 10 2.07912 -9.78148
    endloop
  endfacet
  facet normal 0 0.309017 -0.951057
    outer loop
      vertex 10 4.06737 -9.13545
      vertex 0 2.07912 -9.78148
      vertex 0 4.06737 -9.13545
    endloop
  endfacet
  facet normal 0 -1 4.56179e-007
    outer loop
      vertex 0 -9.94522 -1.04528
      vertex 10 -9.94522 1.04529
      vertex 0 -9.94522 1.04529
    endloop
  endfacet
  facet normal 0 -1 4.56179e-007
    outer loop
      vertex 10 -9.94522 1.04529
      vertex 0 -9.94522 -1.04528
      vertex 10 -9.94522 -1.04528
    endloop
  endfacet
  facet normal 0 0.978148 -0.207912
    outer loop
      vertex 10 9.51056 -3.09017
      vertex 0 9.94522 -1.04529
      vertex 10 9.94522 -1.04529
    endloop
  endfacet
  facet normal 0 0.978148 -0.207912
    outer loop
      vertex 0 9.94522 -1.04529
      vertex 10 9.51056 -3.09017
      vertex 0 9.51056 -3.09017
    endloop
  endfacet
  facet normal 0 0.978147 0.207912
    outer loop
      vertex 10 9.94522 1.04528
      vertex 0 9.51056 3.09017
      vertex 10 9.51056 3.09017
    endloop
  endfacet
  facet normal 0 0.978147 0.207912
    outer loop
      vertex 0 9.51056 3.09017
      vertex 10 9.94522 1.04528
      vertex 0 9.94522 1.04528
    endloop
  endfacet
  facet normal 4.91261e-008 0.809017 0.587785
    outer loop
      vertex 10 8.66025 5
      vertex 0 8.66025 5
      vertex 10 7.43145 6.69131
    endloop
  endfacet
  facet normal 1 -2.00441e-006 -8.9242e-007
    outer loop
      vertex 10 -7.43145 -6.69131
      vertex 10 -9.51056 -3.09017
      vertex 10 -8.66025 -5
    endloop
  endfacet
  facet normal 0 -0.978148 0.207912
    outer loop
      vertex 0 -9.94522 1.04529
      vertex 10 -9.51056 3.09017
      vertex 0 -9.51056 3.09017
    endloop
  endfacet
  facet normal 0 -0.978148 0.207912
    outer loop
      vertex 10 -9.51056 3.09017
      vertex 0 -9.94522 1.04529
      vertex 10 -9.94522 1.04529
    endloop
  endfacet
  facet normal -0 -0.104528 -0.994522
    outer loop
      vertex 10 -2.07912 -9.78148
      vertex 0 -2.07912 -9.78148
      vertex 0 2.56532e-007 -10
    endloop
  endfacet
  facet normal 0 0.104529 -0.994522
    outer loop
      vertex 10 2.07912 -9.78148
      vertex 0 2.56532e-007 -10
      vertex 0 2.07912 -9.78148
    endloop
  endfacet
  facet normal 0 0.669131 -0.743145
    outer loop
      vertex 0 5.87785 -8.09017
      vertex 10 7.43145 -6.69131
      vertex 10 5.87785 -8.09017
    endloop
  endfacet
  facet normal 0 0.669131 -0.743145
    outer loop
      vertex 10 7.43145 -6.69131
      vertex 0 5.87785 -8.09017
      vertex 0 7.43145 -6.69131
    endloop
  endfacet
  facet normal 0 -0.913546 0.406736
    outer loop
      vertex 0 -9.51056 3.09017
      vertex 10 -8.66025 5
      vertex 0 -8.66025 5
    endloop
  endfacet
  facet normal 0 -0.913546 0.406736
    outer loop
      vertex 10 -8.66025 5
      vertex 0 -9.51056 3.09017
      vertex 10 -9.51056 3.09017
    endloop
  endfacet
  facet normal 0 1 -4.56179e-007
    outer loop
      vertex 10 9.94522 -1.04529
      vertex 0 9.94522 1.04528
      vertex 10 9.94522 1.04528
    endloop
  endfacet
  facet normal 0 1 -4.56179e-007
    outer loop
      vertex 0 9.94522 1.04528
      vertex 10 9.94522 -1.04529
      vertex 0 9.94522 -1.04529
    endloop
  endfacet
  facet normal 6.77278e-008 0.913545 0.406737
    outer loop
      vertex 10 9.51056 3.09017
      vertex 0 8.66025 5
      vertex 10 8.66025 5
    endloop
  endfacet
  facet normal 1 -3.7938e-007 1.73065e-013
    outer loop
      vertex 10 -9.94522 1.04529
      vertex 10 -9.94522 -1.04528
      vertex 10 -7.43145 -6.69131
    endloop
  endfacet
  facet normal 0 -0.809017 -0.587785
    outer loop
      vertex 0 -7.43145 -6.69131
      vertex 10 -8.66025 -5
      vertex 0 -8.66025 -5
    endloop
  endfacet
  facet normal 0 -0.809017 -0.587785
    outer loop
      vertex 10 -8.66025 -5
      vertex 0 -7.43145 -6.69131
      vertex 10 -7.43145 -6.69131
    endloop
  endfacet
  facet normal 0 -0.913546 -0.406736
    outer loop
      vertex 0 -8.66025 -5
      vertex 10 -9.51056 -3.09017
      vertex 0 -9.51056 -3.09017
    endloop
  endfacet
  facet normal 0 -0.913546 -0.406736
    outer loop
      vertex 10 -9.51056 -3.09017
      vertex 0 -8.66025 -5
      vertex 10 -8.66025 -5
    endloop
  endfacet
  facet normal 1 -7.25963e-007 -1.54309e-007
    outer loop
      vertex 10 -7.43145 -6.69131
      vertex 10 -9.94522 -1.04528
      vertex 10 -9.51056 -3.09017
    endloop
  endfacet
  facet normal 0 -0.978147 -0.207912
    outer loop
      vertex 0 -9.51056 -3.09017
      vertex 10 -9.94522 -1.04528
      vertex 0 -9.94522 -1.04528
    endloop
  endfacet
  facet normal 0 -0.978147 -0.207912
    outer loop
      vertex 10 -9.94522 -1.04528
      vertex 0 -9.51056 -3.09017
      vertex 10 -9.51056 -3.09017
    endloop
  endfacet
  facet normal 1.03478e-007 0.104528 -0.994522
    outer loop
      vertex 10 -5.69374e-007 -10
      vertex 0 2.56532e-007 -10
      vertex 10 2.07912 -9.78148
    endloop
  endfacet
  facet normal 0 0.809017 -0.587786
    outer loop
      vertex 10 7.43145 -6.69131
      vertex 0 7.43145 -6.69131
      vertex 0 8.66025 -5
    endloop
  endfacet
  facet normal 1.05182e-007 0.809017 -0.587785
    outer loop
      vertex 10 7.43145 -6.69131
      vertex 0 8.66025 -5
      vertex 10 8.66025 -5
    endloop
  endfacet
  facet normal 1 -2.29346e-007 4.8749e-008
    outer loop
      vertex 10 -9.51056 3.09017
      vertex 10 -9.94522 1.04529
      vertex 10 -7.43145 -6.69131
    endloop
  endfacet
  facet normal 1 -1.48222e-007 6.59925e-008
    outer loop
      vertex 10 -8.66025 5
      vertex 10 -9.51056 3.09017
      vertex 10 -7.43145 -6.69131
    endloop
  endfacet
  facet normal 8.6212e-008 -0.104528 -0.994522
    outer loop
      vertex 10 -2.07912 -9.78148
      vertex 0 2.56532e-007 -10
      vertex 10 -5.69374e-007 -10
    endloop
  endfacet
  facet normal 0 0.5 -0.866025
    outer loop
      vertex 0 4.06737 -9.13545
      vertex 10 5.87785 -8.09017
      vertex 10 4.06737 -9.13545
    endloop
  endfacet
  facet normal 0 0.5 -0.866025
    outer loop
      vertex 10 5.87785 -8.09017
      vertex 0 4.06737 -9.13545
      vertex 0 5.87785 -8.09017
    endloop
  endfacet
  facet normal 0 -0.309018 -0.951056
    outer loop
      vertex 0 -4.06737 -9.13545
      vertex 10 -2.07912 -9.78148
      vertex 10 -4.06737 -9.13545
    endloop
  endfacet
  facet normal -0 -0.309018 -0.951056
    outer loop
      vertex 10 -2.07912 -9.78148
      vertex 0 -4.06737 -9.13545
      vertex 0 -2.07912 -9.78148
    endloop
  endfacet
  facet normal 0 -0.5 -0.866025
    outer loop
      vertex 0 -5.87785 -8.09017
      vertex 10 -4.06737 -9.13545
      vertex 10 -5.87785 -8.09017
    endloop
  endfacet
  facet normal -0 -0.5 -0.866025
    outer loop
      vertex 10 -4.06737 -9.13545
      vertex 0 -5.87785 -8.09017
      vertex 0 -4.06737 -9.13545
    endloop
  endfacet
  facet normal -1 0 0
    outer loop
      vertex 190 9.51056 -3.09017
      vertex 190 9.94522 1.04528
      vertex 190 9.94522 -1.04529
    endloop
  endfacet
  facet normal -1 0 0
    outer loop
      vertex 190 9.51056 -3.09017
      vertex 190 9.51056 3.09017
      vertex 190 9.94522 1.04528
    endloop
  endfacet
  facet normal -1 0 0
    outer loop
      vertex 190 8.66025 -5
      vertex 190 9.51056 3.09017
      vertex 190 9.51056 -3.09017
    endloop
  endfacet
  facet normal -1 0 0
    outer loop
      vertex 190 8.66025 -5
      vertex 190 8.66025 5
      vertex 190 9.51056 3.09017
    endloop
  endfacet
  facet normal -1 0 0
    outer loop
      vertex 190 4.97261 8.61281
      vertex 190 8.66025 5
      vertex 190 8.66025 -5
    endloop
  endfacet
  facet normal -1 0 0
    outer loop
      vertex 190 4.97261 8.61281
      vertex 190 8.66025 -5
      vertex 190 7.43145 -6.69131
    endloop
  endfacet
  facet normal -1 0 0
    outer loop
      vertex 190 4.97261 8.61281
      vertex 190 7.43145 -6.69131
      vertex 190 5.87785 -8.09017
    endloop
  endfacet
  facet normal -1 0 0
    outer loop
      vertex 190 8.66025 5
      vertex 190 4.97261 8.61281
      vertex 190 7.43145 6.69131
    endloop
  endfacet
  facet normal -1 0 0
    outer loop
      vertex 190 7.43145 6.69131
      vertex 190 4.97261 8.61281
      vertex 190 5.87785 8.09017
    endloop
  endfacet
  facet normal -1 0 -0
    outer loop
      vertex 190 4.97261 8.61281
      vertex 190 5.87785 -8.09017
      vertex 190 4.06737 -9.13545
    endloop
  endfacet
  facet normal -1 0 0
    outer loop
      vertex 190 4.97261 8.61281
      vertex 190 21.3397 56.9615
      vertex 190 30 51.9615
    endloop
  endfacet
  facet normal -1 0 0
    outer loop
      vertex 190 2.07912 -9.78148
      vertex 190 4.97261 8.61281
      vertex 190 4.06737 -9.13545
    endloop
  endfacet
  facet normal -1 0 0
    outer loop
      vertex 190 2.56532e-007 -10
      vertex 190 4.97261 8.61281
      vertex 190 2.07912 -9.78148
    endloop
  endfacet
  facet normal -1 0 0
    outer loop
      vertex 190 -2.07912 -9.78148
      vertex 190 4.97261 8.61281
      vertex 190 2.56532e-007 -10
    endloop
  endfacet
  facet normal -1 0 0
    outer loop
      vertex 190 -8.66025 5
      vertex 190 4.97261 8.61281
      vertex 190 -2.07912 -9.78148
    endloop
  endfacet
  facet normal -1 0 0
    outer loop
      vertex 190 -8.66025 5
      vertex 190 -2.07912 -9.78148
      vertex 190 -4.06737 -9.13545
    endloop
  endfacet
  facet normal -1 0 0
    outer loop
      vertex 190 -8.66025 5
      vertex 190 -4.06737 -9.13545
      vertex 190 -5.87785 -8.09017
    endloop
  endfacet
  facet normal -1 0 0
    outer loop
      vertex 190 -8.66025 5
      vertex 190 -5.87785 -8.09017
      vertex 190 -7.43145 -6.69131
    endloop
  endfacet
  facet normal -1 0 0
    outer loop
      vertex 190 -8.66025 5
      vertex 190 -7.43145 -6.69131
      vertex 190 -8.66025 -5
    endloop
  endfacet
  facet normal -1 -0 0
    outer loop
      vertex 190 4.97261 8.61281
      vertex 190 -8.66025 5
      vertex 190 21.3397 56.9615
    endloop
  endfacet
  facet normal -1 0 0
    outer loop
      vertex 190 -9.51056 -3.09017
      vertex 190 -8.66025 5
      vertex 190 -8.66025 -5
    endloop
  endfacet
  facet normal -1 0 0
    outer loop
      vertex 190 -9.51056 -3.09017
      vertex 190 -9.51056 3.09017
      vertex 190 -8.66025 5
    endloop
  endfacet
  facet normal -1 0 0
    outer loop
      vertex 190 -9.51056 -3.09017
      vertex 190 -9.94522 1.04529
      vertex 190 -9.51056 3.09017
    endloop
  endfacet
  facet normal -1 0 -0
    outer loop
      vertex 190 -9.94522 1.04529
      vertex 190 -9.51056 -3.09017
      vertex 190 -9.94522 -1.04528
    endloop
  endfacet
  facet normal -1 0 0
    outer loop
      vertex 190 95 164.545
      vertex 190 101.34 195.526
      vertex 190 110 190.526
    endloop
  endfacet
  facet normal -1 0 0
    outer loop
      vertex 190 101.34 195.526
      vertex 190 95 164.545
      vertex 190 86.3397 169.545
    endloop
  endfacet
  facet normal -1 0 0
    outer loop
      vertex 190 35 60.6218
      vertex 190 81.3397 160.885
      vertex 190 90 155.885
    endloop
  endfacet
  facet normal -1 0 0
    outer loop
      vertex 190 81.3397 160.885
      vertex 190 35 60.6218
      vertex 190 26.3397 65.6218
    endloop
  endfacet
  facet normal 1 0 0
    outer loop
      vertex 200 21.3397 56.9615
      vertex 200 4.97261 8.61281
      vertex 200 30 51.9615
    endloop
  endfacet
  facet normal 1 0 0
    outer loop
      vertex 200 5.87785 -8.09017
      vertex 200 -2.67617 1.54508
      vertex 200 4.06737 -9.13545
    endloop
  endfacet
  facet normal 1 0 0
    outer loop
      vertex 200 4.06737 -9.13545
      vertex 200 -2.67617 1.54508
      vertex 200 2.07912 -9.78148
    endloop
  endfacet
  facet normal 1 0 0
    outer loop
      vertex 200 2.07912 -9.78148
      vertex 200 -2.67617 1.54508
      vertex 200 -5.69374e-007 -10
    endloop
  endfacet
  facet normal 1 0 0
    outer loop
      vertex 200 -8.66025 5
      vertex 200 4.97261 8.61281
      vertex 200 21.3397 56.9615
    endloop
  endfacet
  facet normal 1 0 0
    outer loop
      vertex 200 -5.69374e-007 -10
      vertex 200 -2.67617 1.54508
      vertex 200 -2.07912 -9.78148
    endloop
  endfacet
  facet normal 1 0 0
    outer loop
      vertex 200 4.97261 8.61281
      vertex 200 -8.66025 5
      vertex 200 -2.67617 1.54508
    endloop
  endfacet
  facet normal 1 -0 0
    outer loop
      vertex 200 -2.67617 1.54508
      vertex 200 9.94522 1.04528
      vertex 200 9.51056 3.09017
    endloop
  endfacet
  facet normal 1 0 0
    outer loop
      vertex 200 9.94522 1.04528
      vertex 200 -2.67617 1.54508
      vertex 200 9.94522 -1.04529
    endloop
  endfacet
  facet normal 1 0 0
    outer loop
      vertex 200 9.94522 -1.04529
      vertex 200 -2.67617 1.54508
      vertex 200 9.51056 -3.09017
    endloop
  endfacet
  facet normal 1 0 0
    outer loop
      vertex 200 -2.67617 1.54508
      vertex 200 9.51056 3.09017
      vertex 200 8.66025 5
    endloop
  endfacet
  facet normal 1 0 0
    outer loop
      vertex 200 5.87785 8.09017
      vertex 200 -2.67617 1.54508
      vertex 200 7.43145 6.69131
    endloop
  endfacet
  facet normal 1 0 0
    outer loop
      vertex 200 7.43145 6.69131
      vertex 200 -2.67617 1.54508
      vertex 200 8.66025 5
    endloop
  endfacet
  facet normal 1 0 0
    outer loop
      vertex 200 9.51056 -3.09017
      vertex 200 -2.67617 1.54508
      vertex 200 8.66025 -5
    endloop
  endfacet
  facet normal 1 0 0
    outer loop
      vertex 200 -2.67617 1.54508
      vertex 200 5.87785 8.09017
      vertex 200 4.97261 8.61281
    endloop
  endfacet
  facet normal 1 0 0
    outer loop
      vertex 200 8.66025 -5
      vertex 200 -2.67617 1.54508
      vertex 200 7.43145 -6.69131
    endloop
  endfacet
  facet normal 1 0 0
    outer loop
      vertex 200 7.43145 -6.69131
      vertex 200 -2.67617 1.54508
      vertex 200 5.87785 -8.09017
    endloop
  endfacet
  facet normal 1 0 0
    outer loop
      vertex 200 -2.67617 1.54508
      vertex 200 -4.06737 -9.13545
      vertex 200 -2.07912 -9.78148
    endloop
  endfacet
  facet normal 1 0 0
    outer loop
      vertex 200 -2.67617 1.54508
      vertex 200 -5.87785 -8.09017
      vertex 200 -4.06737 -9.13545
    endloop
  endfacet
  facet normal 1 0 -0
    outer loop
      vertex 200 -5.87785 -8.09017
      vertex 200 -2.67617 1.54508
      vertex 200 -7.43145 -6.69131
    endloop
  endfacet
  facet normal 1 0 0
    outer loop
      vertex 200 101.34 195.526
      vertex 200 95 164.545
      vertex 200 110 190.526
    endloop
  endfacet
  facet normal 1 0 -0
    outer loop
      vertex 200 95 164.545
      vertex 200 101.34 195.526
      vertex 200 86.3397 169.545
    endloop
  endfacet
  facet normal 1 0 0
    outer loop
      vertex 200 81.3397 160.885
      vertex 200 35 60.6218
      vertex 200 90 155.885
    endloop
  endfacet
  facet normal 1 0 -0
    outer loop
      vertex 200 35 60.6218
      vertex 200 81.3397 160.885
      vertex 200 26.3397 65.6218
    endloop
  endfacet
  facet normal -0 0.5 0.866025
    outer loop
      vertex 190 110 190.526
      vertex 200 101.34 195.526
      vertex 200 110 190.526
    endloop
  endfacet
  facet normal 0 0.5 0.866025
    outer loop
      vertex 200 101.34 195.526
      vertex 190 110 190.526
      vertex 190 101.34 195.526
    endloop
  endfacet
  facet normal 0 0.913546 -0.406736
    outer loop
      vertex 200 9.51056 -3.09017
      vertex 190 8.66025 -5
      vertex 190 9.51056 -3.09017
    endloop
  endfacet
  facet normal 1.06517e-007 0.913546 -0.406736
    outer loop
      vertex 200 8.66025 -5
      vertex 190 8.66025 -5
      vertex 200 9.51056 -3.09017
    endloop
  endfacet
  facet normal -0 0.5 0.866025
    outer loop
      vertex 190 5.87785 8.09017
      vertex 200 4.97261 8.61281
      vertex 200 5.87785 8.09017
    endloop
  endfacet
  facet normal 0 0.5 0.866025
    outer loop
      vertex 200 4.97261 8.61281
      vertex 190 5.87785 8.09017
      vertex 190 4.97261 8.61281
    endloop
  endfacet
  facet normal 0 -0.66913 -0.743145
    outer loop
      vertex 190 -7.43145 -6.69131
      vertex 200 -5.87785 -8.09017
      vertex 200 -7.43145 -6.69131
    endloop
  endfacet
  facet normal -0 -0.66913 -0.743145
    outer loop
      vertex 200 -5.87785 -8.09017
      vertex 190 -7.43145 -6.69131
      vertex 190 -5.87785 -8.09017
    endloop
  endfacet
  facet normal -0 0.913546 0.406736
    outer loop
      vertex 190 9.51056 3.09017
      vertex 190 8.66025 5
      vertex 200 9.51056 3.09017
    endloop
  endfacet
  facet normal 0 0.809017 0.587785
    outer loop
      vertex 190 8.66025 5
      vertex 190 7.43145 6.69131
      vertex 200 7.43145 6.69131
    endloop
  endfacet
  facet normal -0 0.66913 0.743145
    outer loop
      vertex 190 7.43145 6.69131
      vertex 200 5.87785 8.09017
      vertex 200 7.43145 6.69131
    endloop
  endfacet
  facet normal 0 0.66913 0.743145
    outer loop
      vertex 200 5.87785 8.09017
      vertex 190 7.43145 6.69131
      vertex 190 5.87785 8.09017
    endloop
  endfacet
  facet normal 1 0 0
    outer loop
      vertex 200 -2.67617 1.54508
      vertex 200 -8.66025 5
      vertex 200 -7.43145 -6.69131
    endloop
  endfacet
  facet normal 0 0.309017 -0.951057
    outer loop
      vertex 190 2.07912 -9.78148
      vertex 200 4.06737 -9.13545
      vertex 200 2.07912 -9.78148
    endloop
  endfacet
  facet normal 0 0.309017 -0.951057
    outer loop
      vertex 200 4.06737 -9.13545
      vertex 190 2.07912 -9.78148
      vertex 190 4.06737 -9.13545
    endloop
  endfacet
  facet normal 0 -1 4.56179e-007
    outer loop
      vertex 190 -9.94522 -1.04528
      vertex 200 -9.94522 1.04529
      vertex 190 -9.94522 1.04529
    endloop
  endfacet
  facet normal 0 -1 4.56179e-007
    outer loop
      vertex 200 -9.94522 1.04529
      vertex 190 -9.94522 -1.04528
      vertex 200 -9.94522 -1.04528
    endloop
  endfacet
  facet normal 0 0.978148 -0.207912
    outer loop
      vertex 200 9.51056 -3.09017
      vertex 190 9.94522 -1.04529
      vertex 200 9.94522 -1.04529
    endloop
  endfacet
  facet normal 0 0.978148 -0.207912
    outer loop
      vertex 190 9.94522 -1.04529
      vertex 200 9.51056 -3.09017
      vertex 190 9.51056 -3.09017
    endloop
  endfacet
  facet normal 0 0.978147 0.207912
    outer loop
      vertex 200 9.94522 1.04528
      vertex 190 9.51056 3.09017
      vertex 200 9.51056 3.09017
    endloop
  endfacet
  facet normal 0 0.978147 0.207912
    outer loop
      vertex 190 9.51056 3.09017
      vertex 200 9.94522 1.04528
      vertex 190 9.94522 1.04528
    endloop
  endfacet
  facet normal 4.91261e-008 0.809017 0.587785
    outer loop
      vertex 200 8.66025 5
      vertex 190 8.66025 5
      vertex 200 7.43145 6.69131
    endloop
  endfacet
  facet normal 1 0 0
    outer loop
      vertex 200 -7.43145 -6.69131
      vertex 200 -9.51056 -3.09017
      vertex 200 -8.66025 -5
    endloop
  endfacet
  facet normal 0 -0.978148 0.207912
    outer loop
      vertex 190 -9.94522 1.04529
      vertex 200 -9.51056 3.09017
      vertex 190 -9.51056 3.09017
    endloop
  endfacet
  facet normal 0 -0.978148 0.207912
    outer loop
      vertex 200 -9.51056 3.09017
      vertex 190 -9.94522 1.04529
      vertex 200 -9.94522 1.04529
    endloop
  endfacet
  facet normal -0 -0.104528 -0.994522
    outer loop
      vertex 200 -2.07912 -9.78148
      vertex 190 -2.07912 -9.78148
      vertex 190 2.56532e-007 -10
    endloop
  endfacet
  facet normal 0 0.104529 -0.994522
    outer loop
      vertex 200 2.07912 -9.78148
      vertex 190 2.56532e-007 -10
      vertex 190 2.07912 -9.78148
    endloop
  endfacet
  facet normal 0 0.669131 -0.743145
    outer loop
      vertex 190 5.87785 -8.09017
      vertex 200 7.43145 -6.69131
      vertex 200 5.87785 -8.09017
    endloop
  endfacet
  facet normal 0 0.669131 -0.743145
    outer loop
      vertex 200 7.43145 -6.69131
      vertex 190 5.87785 -8.09017
      vertex 190 7.43145 -6.69131
    endloop
  endfacet
  facet normal 0 -0.913546 0.406736
    outer loop
      vertex 190 -9.51056 3.09017
      vertex 200 -8.66025 5
      vertex 190 -8.66025 5
    endloop
  endfacet
  facet normal 0 -0.913546 0.406736
    outer loop
      vertex 200 -8.66025 5
      vertex 190 -9.51056 3.09017
      vertex 200 -9.51056 3.09017
    endloop
  endfacet
  facet normal 0 1 -4.56179e-007
    outer loop
      vertex 200 9.94522 -1.04529
      vertex 190 9.94522 1.04528
      vertex 200 9.94522 1.04528
    endloop
  endfacet
  facet normal 0 1 -4.56179e-007
    outer loop
      vertex 190 9.94522 1.04528
      vertex 200 9.94522 -1.04529
      vertex 190 9.94522 -1.04529
    endloop
  endfacet
  facet normal 6.77278e-008 0.913545 0.406737
    outer loop
      vertex 200 9.51056 3.09017
      vertex 190 8.66025 5
      vertex 200 8.66025 5
    endloop
  endfacet
  facet normal 1 0 0
    outer loop
      vertex 200 -9.94522 1.04529
      vertex 200 -9.94522 -1.04528
      vertex 200 -7.43145 -6.69131
    endloop
  endfacet
  facet normal 0 -0.809017 -0.587785
    outer loop
      vertex 190 -7.43145 -6.69131
      vertex 200 -8.66025 -5
      vertex 190 -8.66025 -5
    endloop
  endfacet
  facet normal 0 -0.809017 -0.587785
    outer loop
      vertex 200 -8.66025 -5
      vertex 190 -7.43145 -6.69131
      vertex 200 -7.43145 -6.69131
    endloop
  endfacet
  facet normal 0 -0.913546 -0.406736
    outer loop
      vertex 190 -8.66025 -5
      vertex 200 -9.51056 -3.09017
      vertex 190 -9.51056 -3.09017
    endloop
  endfacet
  facet normal 0 -0.913546 -0.406736
    outer loop
      vertex 200 -9.51056 -3.09017
      vertex 190 -8.66025 -5
      vertex 200 -8.66025 -5
    endloop
  endfacet
  facet normal 1 0 0
    outer loop
      vertex 200 -7.43145 -6.69131
      vertex 200 -9.94522 -1.04528
      vertex 200 -9.51056 -3.09017
    endloop
  endfacet
  facet normal 0 -0.978147 -0.207912
    outer loop
      vertex 190 -9.51056 -3.09017
      vertex 200 -9.94522 -1.04528
      vertex 190 -9.94522 -1.04528
    endloop
  endfacet
  facet normal 0 -0.978147 -0.207912
    outer loop
      vertex 200 -9.94522 -1.04528
      vertex 190 -9.51056 -3.09017
      vertex 200 -9.51056 -3.09017
    endloop
  endfacet
  facet normal 1.03478e-007 0.104528 -0.994522
    outer loop
      vertex 200 -5.69374e-007 -10
      vertex 190 2.56532e-007 -10
      vertex 200 2.07912 -9.78148
    endloop
  endfacet
  facet normal 0 0.809017 -0.587786
    outer loop
      vertex 200 7.43145 -6.69131
      vertex 190 7.43145 -6.69131
      vertex 190 8.66025 -5
    endloop
  endfacet
  facet normal 1.05182e-007 0.809017 -0.587785
    outer loop
      vertex 200 7.43145 -6.69131
      vertex 190 8.66025 -5
      vertex 200 8.66025 -5
    endloop
  endfacet
  facet normal 1 0 0
    outer loop
      vertex 200 -9.51056 3.09017
      vertex 200 -9.94522 1.04529
      vertex 200 -7.43145 -6.69131
    endloop
  endfacet
  facet normal 1 0 0
    outer loop
      vertex 200 -8.66025 5
      vertex 200 -9.51056 3.09017
      vertex 200 -7.43145 -6.69131
    endloop
  endfacet
  facet normal 8.6212e-008 -0.104528 -0.994522
    outer loop
      vertex 200 -2.07912 -9.78148
      vertex 190 2.56532e-007 -10
      vertex 200 -5.69374e-007 -10
    endloop
  endfacet
  facet normal 0 0.5 -0.866025
    outer loop
      vertex 190 4.06737 -9.13545
      vertex 200 5.87785 -8.09017
      vertex 200 4.06737 -9.13545
    endloop
  endfacet
  facet normal 0 0.5 -0.866025
    outer loop
      vertex 200 5.87785 -8.09017
      vertex 190 4.06737 -9.13545
      vertex 190 5.87785 -8.09017
    endloop
  endfacet
  facet normal 0 -0.309018 -0.951056
    outer loop
      vertex 190 -4.06737 -9.13545
      vertex 200 -2.07912 -9.78148
      vertex 200 -4.06737 -9.13545
    endloop
  endfacet
  facet normal -0 -0.309018 -0.951056
    outer loop
      vertex 200 -2.07912 -9.78148
      vertex 190 -4.06737 -9.13545
      vertex 190 -2.07912 -9.78148
    endloop
  endfacet
  facet normal 0 -0.5 -0.866025
    outer loop
      vertex 190 -5.87785 -8.09017
      vertex 200 -4.06737 -9.13545
      vertex 200 -5.87785 -8.09017
    endloop
  endfacet
  facet normal -0 -0.5 -0.866025
    outer loop
      vertex 200 -4.06737 -9.13545
      vertex 190 -5.87785 -8.09017
      vertex 190 -4.06737 -9.13545
    endloop
  endfacet
endsolid OpenSCAD_Model
