  0
SECTION
  2
BLOCKS
  0
ENDSEC
  0
SECTION
  2
ENTITIES
  0
LINE
  8
0
 10
-1.2
 20
-1.2
 11
50
 21
-1.2
  0
LINE
  8
0
 10
50
 20
-1.2
 11
50
 21
71.2
  0
LINE
  8
0
 10
50
 20
71.2
 11
-1.2
 21
71.2
  0
LINE
  8
0
 10
-1.2
 20
71.2
 11
-1.2
 21
-1.2
  0
LINE
  8
0
 10
5
 20
37
 11
5
 21
47
  0
LINE
  8
0
 10
5
 20
47
 11
12
 21
47
  0
LINE
  8
0
 10
12
 20
47
 11
12
 21
37
  0
LINE
  8
0
 10
12
 20
37
 11
5
 21
37
  0
LINE
  8
0
 10
8
 20
12
 11
8.00789
 21
12.2512
  0
LINE
  8
0
 10
8.00789
 20
12.2512
 11
8.03154
 21
12.5013
  0
LINE
  8
0
 10
8.03154
 20
12.5013
 11
8.07085
 21
12.7495
  0
LINE
  8
0
 10
8.07085
 20
12.7495
 11
8.12567
 21
12.9948
  0
LINE
  8
0
 10
8.12567
 20
12.9948
 11
8.19577
 21
13.2361
  0
LINE
  8
0
 10
8.19577
 20
13.2361
 11
8.28089
 21
13.4725
  0
LINE
  8
0
 10
8.28089
 20
13.4725
 11
8.38069
 21
13.7031
  0
LINE
  8
0
 10
8.38069
 20
13.7031
 11
8.49477
 21
13.927
  0
LINE
  8
0
 10
8.49477
 20
13.927
 11
8.62269
 21
14.1433
  0
LINE
  8
0
 10
8.62269
 20
14.1433
 11
8.76393
 21
14.3511
  0
LINE
  8
0
 10
8.76393
 20
14.3511
 11
8.91795
 21
14.5497
  0
LINE
  8
0
 10
8.91795
 20
14.5497
 11
9.08412
 21
14.7382
  0
LINE
  8
0
 10
9.08412
 20
14.7382
 11
9.26181
 21
14.9159
  0
LINE
  8
0
 10
9.26181
 20
14.9159
 11
9.4503
 21
15.0821
  0
LINE
  8
0
 10
9.4503
 20
15.0821
 11
9.64886
 21
15.2361
  0
LINE
  8
0
 10
9.64886
 20
15.2361
 11
9.85669
 21
15.3773
  0
LINE
  8
0
 10
9.85669
 20
15.3773
 11
10.073
 21
15.5052
  0
LINE
  8
0
 10
10.073
 20
15.5052
 11
10.2969
 21
15.6193
  0
LINE
  8
0
 10
10.2969
 20
15.6193
 11
10.5275
 21
15.7191
  0
LINE
  8
0
 10
10.5275
 20
15.7191
 11
10.7639
 21
15.8042
  0
LINE
  8
0
 10
10.7639
 20
15.8042
 11
11.0052
 21
15.8743
  0
LINE
  8
0
 10
11.0052
 20
15.8743
 11
11.2505
 21
15.9291
  0
LINE
  8
0
 10
11.2505
 20
15.9291
 11
11.4987
 21
15.9685
  0
LINE
  8
0
 10
11.4987
 20
15.9685
 11
11.7488
 21
15.9921
  0
LINE
  8
0
 10
11.7488
 20
15.9921
 11
12
 21
16
  0
LINE
  8
0
 10
12
 20
16
 11
12.2512
 21
15.9921
  0
LINE
  8
0
 10
12.2512
 20
15.9921
 11
12.5013
 21
15.9685
  0
LINE
  8
0
 10
12.5013
 20
15.9685
 11
12.7495
 21
15.9291
  0
LINE
  8
0
 10
12.7495
 20
15.9291
 11
12.9948
 21
15.8743
  0
LINE
  8
0
 10
12.9948
 20
15.8743
 11
13.2361
 21
15.8042
  0
LINE
  8
0
 10
13.2361
 20
15.8042
 11
13.4725
 21
15.7191
  0
LINE
  8
0
 10
13.4725
 20
15.7191
 11
13.7031
 21
15.6193
  0
LINE
  8
0
 10
13.7031
 20
15.6193
 11
13.927
 21
15.5052
  0
LINE
  8
0
 10
13.927
 20
15.5052
 11
14.1433
 21
15.3773
  0
LINE
  8
0
 10
14.1433
 20
15.3773
 11
14.3511
 21
15.2361
  0
LINE
  8
0
 10
14.3511
 20
15.2361
 11
14.5497
 21
15.0821
  0
LINE
  8
0
 10
14.5497
 20
15.0821
 11
14.7382
 21
14.9159
  0
LINE
  8
0
 10
14.7382
 20
14.9159
 11
14.9159
 21
14.7382
  0
LINE
  8
0
 10
14.9159
 20
14.7382
 11
15.0821
 21
14.5497
  0
LINE
  8
0
 10
15.0821
 20
14.5497
 11
15.2361
 21
14.3511
  0
LINE
  8
0
 10
15.2361
 20
14.3511
 11
15.3773
 21
14.1433
  0
LINE
  8
0
 10
15.3773
 20
14.1433
 11
15.5052
 21
13.927
  0
LINE
  8
0
 10
15.5052
 20
13.927
 11
15.6193
 21
13.7031
  0
LINE
  8
0
 10
15.6193
 20
13.7031
 11
15.7191
 21
13.4725
  0
LINE
  8
0
 10
15.7191
 20
13.4725
 11
15.8042
 21
13.2361
  0
LINE
  8
0
 10
15.8042
 20
13.2361
 11
15.8743
 21
12.9948
  0
LINE
  8
0
 10
15.8743
 20
12.9948
 11
15.9291
 21
12.7495
  0
LINE
  8
0
 10
15.9291
 20
12.7495
 11
15.9685
 21
12.5013
  0
LINE
  8
0
 10
15.9685
 20
12.5013
 11
15.9921
 21
12.2512
  0
LINE
  8
0
 10
15.9921
 20
12.2512
 11
16
 21
12
  0
LINE
  8
0
 10
16
 20
12
 11
15.9921
 21
11.7488
  0
LINE
  8
0
 10
15.9921
 20
11.7488
 11
15.9685
 21
11.4987
  0
LINE
  8
0
 10
15.9685
 20
11.4987
 11
15.9291
 21
11.2505
  0
LINE
  8
0
 10
15.9291
 20
11.2505
 11
15.8743
 21
11.0052
  0
LINE
  8
0
 10
15.8743
 20
11.0052
 11
15.8042
 21
10.7639
  0
LINE
  8
0
 10
15.8042
 20
10.7639
 11
15.7191
 21
10.5275
  0
LINE
  8
0
 10
15.7191
 20
10.5275
 11
15.6193
 21
10.2969
  0
LINE
  8
0
 10
15.6193
 20
10.2969
 11
15.5052
 21
10.073
  0
LINE
  8
0
 10
15.5052
 20
10.073
 11
15.3773
 21
9.85669
  0
LINE
  8
0
 10
15.3773
 20
9.85669
 11
15.2361
 21
9.64886
  0
LINE
  8
0
 10
15.2361
 20
9.64886
 11
15.0821
 21
9.4503
  0
LINE
  8
0
 10
15.0821
 20
9.4503
 11
14.9159
 21
9.26181
  0
LINE
  8
0
 10
14.9159
 20
9.26181
 11
14.7382
 21
9.08412
  0
LINE
  8
0
 10
14.7382
 20
9.08412
 11
14.5497
 21
8.91795
  0
LINE
  8
0
 10
14.5497
 20
8.91795
 11
14.3511
 21
8.76393
  0
LINE
  8
0
 10
14.3511
 20
8.76393
 11
14.1433
 21
8.62269
  0
LINE
  8
0
 10
14.1433
 20
8.62269
 11
13.927
 21
8.49477
  0
LINE
  8
0
 10
13.927
 20
8.49477
 11
13.7031
 21
8.38069
  0
LINE
  8
0
 10
13.7031
 20
8.38069
 11
13.4725
 21
8.28089
  0
LINE
  8
0
 10
13.4725
 20
8.28089
 11
13.2361
 21
8.19577
  0
LINE
  8
0
 10
13.2361
 20
8.19577
 11
12.9948
 21
8.12567
  0
LINE
  8
0
 10
12.9948
 20
8.12567
 11
12.7495
 21
8.07085
  0
LINE
  8
0
 10
12.7495
 20
8.07085
 11
12.5013
 21
8.03154
  0
LINE
  8
0
 10
12.5013
 20
8.03154
 11
12.2512
 21
8.00789
  0
LINE
  8
0
 10
12.2512
 20
8.00789
 11
12
 21
8
  0
LINE
  8
0
 10
12
 20
8
 11
11.7488
 21
8.00789
  0
LINE
  8
0
 10
11.7488
 20
8.00789
 11
11.4987
 21
8.03154
  0
LINE
  8
0
 10
11.4987
 20
8.03154
 11
11.2505
 21
8.07085
  0
LINE
  8
0
 10
11.2505
 20
8.07085
 11
11.0052
 21
8.12567
  0
LINE
  8
0
 10
11.0052
 20
8.12567
 11
10.7639
 21
8.19577
  0
LINE
  8
0
 10
10.7639
 20
8.19577
 11
10.5275
 21
8.28089
  0
LINE
  8
0
 10
10.5275
 20
8.28089
 11
10.2969
 21
8.38069
  0
LINE
  8
0
 10
10.2969
 20
8.38069
 11
10.073
 21
8.49477
  0
LINE
  8
0
 10
10.073
 20
8.49477
 11
9.85669
 21
8.62269
  0
LINE
  8
0
 10
9.85669
 20
8.62269
 11
9.64886
 21
8.76393
  0
LINE
  8
0
 10
9.64886
 20
8.76393
 11
9.4503
 21
8.91795
  0
LINE
  8
0
 10
9.4503
 20
8.91795
 11
9.26181
 21
9.08412
  0
LINE
  8
0
 10
9.26181
 20
9.08412
 11
9.08412
 21
9.26181
  0
LINE
  8
0
 10
9.08412
 20
9.26181
 11
8.91795
 21
9.4503
  0
LINE
  8
0
 10
8.91795
 20
9.4503
 11
8.76393
 21
9.64886
  0
LINE
  8
0
 10
8.76393
 20
9.64886
 11
8.62269
 21
9.85669
  0
LINE
  8
0
 10
8.62269
 20
9.85669
 11
8.49477
 21
10.073
  0
LINE
  8
0
 10
8.49477
 20
10.073
 11
8.38069
 21
10.2969
  0
LINE
  8
0
 10
8.38069
 20
10.2969
 11
8.28089
 21
10.5275
  0
LINE
  8
0
 10
8.28089
 20
10.5275
 11
8.19577
 21
10.7639
  0
LINE
  8
0
 10
8.19577
 20
10.7639
 11
8.12567
 21
11.0052
  0
LINE
  8
0
 10
8.12567
 20
11.0052
 11
8.07085
 21
11.2505
  0
LINE
  8
0
 10
8.07085
 20
11.2505
 11
8.03154
 21
11.4987
  0
LINE
  8
0
 10
8.03154
 20
11.4987
 11
8.00789
 21
11.7488
  0
LINE
  8
0
 10
8.00789
 20
11.7488
 11
8
 21
12
  0
LINE
  8
0
 10
19
 20
35
 11
19
 21
52
  0
LINE
  8
0
 10
19
 20
52
 11
31
 21
52
  0
LINE
  8
0
 10
31
 20
52
 11
31
 21
35
  0
LINE
  8
0
 10
31
 20
35
 11
19
 21
35
  0
ENDSEC
  0
SECTION
  2
OBJECTS
  0
DICTIONARY
  0
ENDSEC
  0
EOF
